<?xml version="1.0" standalone="no"?>
<!DOCTYPE svg PUBLIC "-//W3C//DTD SVG 20010904//EN"
 "http://www.w3.org/TR/2001/REC-SVG-20010904/DTD/svg10.dtd">
<svg version="1.0" xmlns="http://www.w3.org/2000/svg"
 width="576.000000pt" height="958.000000pt" viewBox="0 0 576.000000 958.000000"
 preserveAspectRatio="xMidYMid meet">

<g transform="translate(0.000000,958.000000) scale(0.100000,-0.100000)"
fill="#000000" stroke="none">
<path d="M2420 9280 c0 -5 11 -10 24 -10 14 0 28 5 31 10 4 6 -7 10 -24 10
-17 0 -31 -4 -31 -10z"/>
<path d="M2251 9265 c-75 -17 -206 -60 -241 -80 -34 -19 -8 -19 38 1 20 9 46
17 57 19 65 12 192 50 205 61 8 8 12 14 10 13 -3 0 -34 -7 -69 -14z"/>
<path d="M2336 9225 c-18 -28 -20 -35 -7 -35 5 0 14 14 20 30 12 36 9 38 -13
5z"/>
<path d="M3036 9185 c4 -8 10 -15 15 -15 5 0 9 7 9 15 0 8 -7 15 -15 15 -9 0
-12 -6 -9 -15z"/>
<path d="M2060 9156 c-60 -16 -73 -17 -80 -6 -10 17 -23 7 -27 -20 -3 -23 6
-24 91 -9 98 17 190 40 201 50 16 16 -106 6 -185 -15z"/>
<path d="M2872 9140 c7 -21 33 -34 53 -26 23 8 10 22 -29 32 -21 5 -28 4 -24
-6z"/>
<path d="M2716 9104 c-9 -23 -7 -24 42 -17 46 6 54 17 20 27 -38 10 -56 7 -62
-10z"/>
<path d="M3040 9100 c0 -5 7 -10 16 -10 8 0 12 5 9 10 -3 6 -10 10 -16 10 -5
0 -9 -4 -9 -10z"/>
<path d="M1834 9085 c-16 -12 -17 -14 -3 -15 9 0 19 7 23 15 7 19 5 19 -20 0z"/>
<path d="M1920 9089 c0 -5 5 -7 10 -4 6 3 10 8 10 11 0 2 -4 4 -10 4 -5 0 -10
-5 -10 -11z"/>
<path d="M2627 9073 c-12 -11 -8 -23 7 -23 7 0 19 7 26 15 10 12 9 15 -7 15
-11 0 -23 -3 -26 -7z"/>
<path d="M3367 9069 c7 -7 15 -10 18 -7 3 3 -2 9 -12 12 -14 6 -15 5 -6 -5z"/>
<path d="M1897 9033 c-10 -13 -24 -23 -32 -23 -8 0 -19 -9 -25 -20 -6 -11 -21
-20 -33 -20 -13 0 -28 -5 -33 -10 -6 -6 -21 -13 -35 -15 -13 -3 -26 -10 -28
-16 -1 -5 -13 -14 -26 -19 -13 -5 -31 -27 -41 -49 -17 -40 -44 -56 -44 -27 0
27 -19 26 -62 -3 -44 -30 -98 -91 -98 -111 0 -6 -12 -16 -27 -23 -46 -20 -85
-65 -81 -95 3 -25 7 -27 50 -27 25 0 49 -3 53 -7 4 -4 8 -50 8 -102 2 -85 0
-96 -15 -96 -10 0 -20 -10 -24 -25 -4 -15 -16 -28 -30 -31 -14 -4 -29 -14 -34
-24 -5 -9 -23 -20 -40 -23 -17 -4 -30 -13 -30 -21 0 -8 23 -38 51 -68 28 -29
53 -65 56 -80 6 -32 19 -35 44 -12 15 13 24 14 50 5 18 -6 43 -11 56 -11 13 0
26 -7 29 -15 6 -15 35 -20 48 -8 3 4 27 9 52 11 53 4 52 -10 -2 -28 -31 -11
-84 -72 -84 -97 0 -5 5 -1 10 7 7 12 12 12 21 3 10 -10 9 -14 -4 -19 -9 -3
-17 -13 -17 -22 0 -13 -3 -13 -19 2 -24 21 -44 12 -36 -16 5 -14 1 -21 -14
-25 -12 -3 -21 -11 -21 -18 0 -9 -8 -11 -22 -7 l-22 5 22 -28 c25 -31 22 -47
-3 -21 -24 23 -40 20 -54 -11 -12 -26 -14 -26 -25 -10 -18 24 -26 21 -26 -8 0
-20 -6 -27 -30 -31 -16 -4 -27 -11 -24 -16 3 -5 0 -16 -8 -25 -9 -12 -9 -15 0
-9 7 4 12 1 12 -9 0 -9 -5 -13 -11 -10 -7 5 -10 -10 -9 -46 2 -30 -1 -62 -5
-72 -4 -9 -4 -29 -1 -43 4 -14 2 -31 -3 -38 -8 -9 -5 -19 9 -34 31 -33 23 -71
-8 -40 -9 9 -12 7 -12 -9 0 -12 -5 -25 -10 -28 -5 -3 -10 -15 -10 -27 0 -17 2
-18 15 -8 20 17 32 4 18 -19 -6 -10 -8 -24 -3 -31 4 -7 6 -19 3 -27 -3 -8 3
-23 12 -33 12 -13 18 -34 17 -60 -1 -27 2 -39 10 -37 17 3 23 -44 6 -54 -24
-16 10 -27 75 -23 61 4 63 5 136 74 40 39 81 70 90 70 10 0 28 11 41 25 13 14
29 25 37 25 7 0 13 5 13 10 0 11 136 7 147 -3 3 -4 12 0 20 8 8 8 19 15 24 15
12 0 12 -27 0 -35 -5 -3 -15 -22 -22 -43 -6 -20 -25 -55 -40 -76 -16 -22 -29
-47 -29 -56 0 -9 -5 -21 -12 -28 -6 -6 -9 -14 -6 -17 2 -3 22 20 43 50 29 43
43 55 64 55 16 0 21 3 14 8 -10 6 -9 18 4 53 22 57 35 64 49 29 9 -20 24 -32
51 -40 21 -7 54 -25 73 -41 l35 -30 -40 6 c-40 6 -40 6 -18 -12 11 -10 23 -27
25 -38 2 -12 10 -19 21 -17 30 5 18 -14 -15 -23 -56 -17 -37 -32 82 -64 14 -3
26 -15 28 -26 2 -12 0 -16 -5 -9 -14 20 -79 26 -93 9 -10 -13 -9 -15 8 -15 12
0 24 -5 28 -11 3 -6 16 -9 28 -7 16 3 25 -2 33 -19 6 -13 7 -23 2 -23 -5 0 -9
-9 -9 -20 0 -11 -7 -20 -15 -20 -8 0 -15 9 -15 20 0 12 -10 24 -24 30 -13 5
-27 14 -31 19 -9 16 -45 13 -45 -2 0 -8 11 -19 25 -25 29 -14 32 -30 8 -48
-15 -10 -16 -15 -5 -26 11 -11 16 -10 26 5 19 24 33 21 39 -9 3 -18 0 -27 -12
-31 -9 -3 -24 -13 -33 -20 -9 -8 -22 -12 -27 -8 -14 8 -51 -3 -51 -16 0 -5 7
-9 15 -9 22 0 75 -41 69 -52 -3 -5 -19 -6 -34 -3 -23 5 -30 2 -35 -15 -5 -15
-1 -26 10 -34 17 -12 17 -14 0 -39 -9 -15 -22 -24 -28 -20 -19 12 -97 13 -97
2 0 -6 9 -13 20 -16 46 -12 8 -53 -49 -53 -17 0 -31 -4 -31 -10 0 -5 5 -10 12
-10 6 0 4 -6 -7 -13 -23 -18 -10 -41 19 -33 11 3 28 1 36 -4 11 -7 8 -11 -14
-20 l-28 -10 26 -21 c33 -26 34 -43 1 -35 -38 10 -105 -13 -105 -35 0 -35 -28
-8 -40 39 -6 26 -15 54 -19 62 -5 9 -3 21 6 29 11 10 11 16 3 26 -17 21 -3 37
21 25 18 -10 23 -6 20 14 -1 4 7 23 18 42 35 58 4 152 -70 218 -25 23 -30 33
-25 54 12 48 17 212 6 212 -16 0 -32 -39 -22 -56 10 -18 0 -96 -19 -141 -13
-31 -12 -34 22 -70 61 -64 81 -100 72 -125 -4 -13 -8 -39 -8 -58 0 -33 -2 -35
-32 -34 -30 2 -34 -1 -43 -37 -6 -21 -15 -41 -20 -44 -6 -3 -10 -18 -10 -32 0
-23 -3 -24 -27 -18 -30 9 -40 9 -94 -1 -34 -5 -37 -4 -42 23 -4 15 -10 33 -14
39 -10 14 -73 27 -73 15 0 -22 -43 6 -74 48 -19 25 -51 62 -70 80 -25 24 -36
44 -36 63 0 18 -19 57 -53 105 -65 95 -61 87 -83 157 -17 54 -17 59 -1 67 9 6
17 16 17 24 0 11 -6 12 -25 5 -29 -11 -31 -4 -10 26 8 12 11 24 8 28 -3 3 1 6
11 6 13 0 15 4 6 19 -15 29 -12 41 10 41 22 0 24 4 11 28 -5 10 -11 37 -12 62
-3 39 -1 45 16 45 11 0 21 8 23 19 3 15 0 18 -17 13 -17 -4 -21 -1 -21 19 0
16 -6 24 -17 24 -10 0 -14 4 -8 8 17 12 8 110 -12 127 -9 8 -9 33 3 115 8 58
16 110 18 115 2 6 -5 21 -15 34 -32 41 -23 67 12 35 19 -17 39 -12 39 10 0 7
11 21 24 32 14 10 23 21 21 24 -2 4 2 18 10 33 13 25 12 27 -23 45 -37 19 -54
42 -30 42 13 0 48 34 48 46 0 3 6 20 14 37 20 46 27 105 13 110 -9 3 -9 10 1
27 15 25 9 38 -11 22 -18 -15 -30 -3 -16 15 6 7 9 24 7 38 -3 13 0 26 6 28 7
3 5 11 -6 24 -10 11 -18 22 -18 26 0 10 33 -5 57 -26 25 -22 45 -15 41 16 -3
19 2 22 26 20 42 -3 64 30 64 92 0 28 7 67 15 87 17 41 9 55 -21 39 -10 -5
-28 -7 -40 -4 -15 3 -22 1 -22 -8 0 -8 -34 -50 -75 -94 -72 -78 -88 -105 -62
-105 6 0 4 -5 -6 -11 -9 -6 -26 -7 -37 -4 -14 5 -22 1 -26 -12 -3 -10 -10 -29
-16 -43 -6 -14 -11 -34 -12 -45 -1 -11 -5 -21 -9 -22 -27 -8 -87 -129 -87
-177 0 -13 54 -43 85 -48 11 -2 21 -12 23 -23 2 -11 8 -30 14 -43 14 -27 -1
-48 -27 -38 -13 4 -16 15 -13 36 4 28 -2 35 -27 30 -5 -1 -23 -3 -39 -5 -16
-2 -33 -8 -37 -12 -9 -9 -32 -97 -54 -206 -8 -37 -21 -80 -29 -95 -8 -15 -18
-44 -21 -64 -4 -29 -11 -38 -25 -38 -25 0 -37 -59 -20 -101 8 -18 11 -51 7
-85 -5 -50 -4 -56 19 -70 22 -15 23 -18 8 -29 -21 -15 -12 -65 11 -65 8 0 15
-7 15 -15 0 -8 -4 -15 -10 -15 -5 0 -10 5 -10 10 0 6 -4 10 -10 10 -14 0 -12
-64 3 -78 6 -7 12 -36 12 -65 1 -49 2 -52 25 -49 14 1 30 9 37 18 10 14 13 13
22 -4 8 -15 7 -23 -4 -32 -8 -7 -15 -19 -15 -26 0 -8 -4 -14 -10 -14 -5 0 -10
5 -10 12 0 9 -3 9 -11 1 -15 -15 -3 -63 16 -63 8 0 12 -6 9 -14 -3 -8 4 -25
15 -37 12 -13 21 -17 21 -11 0 7 7 12 15 12 9 0 16 -14 20 -37 4 -21 11 -49
16 -62 7 -16 7 -27 -1 -35 -5 -5 -10 -20 -10 -33 0 -13 -6 -23 -14 -23 -15 0
-26 21 -26 51 0 16 5 19 20 14 15 -5 20 -2 20 14 0 13 -8 21 -22 23 -14 2 -24
12 -28 27 -7 32 -60 50 -60 21 0 -10 5 -22 10 -25 6 -3 10 -23 10 -43 0 -21
11 -54 25 -77 26 -41 32 -93 16 -124 -8 -14 -6 -17 10 -17 15 1 26 -13 44 -54
16 -38 29 -56 44 -58 20 -3 81 -71 81 -90 0 -18 43 -42 73 -42 15 0 26 -4 22
-9 -3 -6 0 -13 7 -18 8 -4 25 -23 40 -41 23 -28 28 -30 36 -16 7 12 4 22 -10
36 -14 14 -18 27 -14 44 5 19 3 24 -14 24 -11 0 -20 6 -20 14 0 25 14 25 42 1
22 -19 27 -30 22 -53 -5 -26 0 -34 41 -67 56 -47 73 -73 50 -81 -9 -4 -25 4
-40 20 -23 25 -45 34 -45 18 0 -14 31 -52 43 -52 24 -1 107 -70 107 -90 0 -10
17 -33 38 -49 20 -17 57 -46 80 -66 45 -36 96 -47 119 -24 14 14 4 59 -14 59
-8 0 -13 6 -10 13 2 6 11 12 20 11 10 0 36 -1 59 -2 l41 -2 -36 -27 c-20 -16
-36 -30 -37 -33 0 -10 55 -37 89 -44 26 -5 37 -2 46 11 12 16 16 16 40 3 25
-13 28 -13 41 5 14 18 14 18 14 -3 0 -11 8 -27 18 -34 9 -7 26 -30 36 -51 16
-31 18 -42 8 -57 -10 -16 -7 -22 19 -41 20 -14 29 -28 27 -43 -3 -18 -9 -21
-48 -21 -36 1 -47 -3 -53 -20 -8 -19 -9 -19 -27 5 -16 22 -17 27 -4 41 8 8 11
19 7 23 -5 4 5 4 21 0 26 -6 27 -5 17 14 -6 12 -17 24 -24 29 -20 13 -110 43
-128 43 -9 0 -27 9 -41 19 -36 29 -72 35 -88 16 -11 -13 -9 -20 12 -43 14 -15
29 -38 33 -51 6 -20 1 -18 -28 15 -20 21 -44 50 -55 64 -18 22 -21 23 -36 8
-24 -24 -20 -37 17 -53 46 -19 90 -74 75 -92 -9 -11 -8 -17 3 -24 8 -5 19 -9
26 -9 6 0 20 -10 30 -23 10 -12 35 -33 55 -45 45 -28 148 -138 148 -158 0 -9
7 -23 16 -31 10 -11 14 -27 11 -47 -2 -17 -1 -41 4 -53 7 -19 5 -23 -12 -23
-16 0 -19 -4 -13 -22 9 -33 13 -34 28 -13 11 15 17 17 28 8 8 -7 19 -8 28 -3
9 6 22 2 38 -11 14 -10 31 -19 39 -19 14 0 13 12 -5 59 -4 10 -1 13 12 8 10
-4 24 -7 32 -7 19 0 18 -26 -1 -34 -23 -9 55 -86 87 -86 31 0 41 -9 27 -26
-13 -16 7 -30 24 -16 7 5 28 13 47 17 40 9 79 34 80 52 0 19 19 26 35 13 16
-13 9 -40 -11 -40 -7 0 -25 -11 -39 -25 -28 -29 -31 -37 -12 -29 16 6 94 -60
102 -86 9 -30 33 -25 27 5 -2 15 0 25 7 25 6 0 11 5 11 10 0 14 -28 12 -33 -2
-2 -7 -8 -10 -12 -6 -14 13 3 35 51 67 l47 32 -6 -50 c-3 -28 -2 -53 4 -56 5
-4 9 -16 9 -29 0 -12 7 -31 15 -42 8 -10 15 -30 15 -43 0 -18 4 -22 18 -16 31
12 37 10 37 -10 0 -13 -6 -20 -17 -19 -18 2 -22 -6 -18 -41 3 -27 7 -30 25
-15 20 17 21 -8 0 -36 -21 -28 -18 -44 9 -44 22 0 24 -3 19 -40 -7 -48 12 -55
21 -7 3 17 8 75 12 127 5 70 11 98 23 108 15 12 15 14 -1 23 -25 14 -22 28 8
52 22 17 25 25 20 56 -6 39 -6 37 -2 96 2 22 -1 48 -6 58 -7 14 -3 42 15 100
13 45 25 111 26 147 1 35 5 68 7 72 3 4 -2 5 -10 2 -13 -5 -16 2 -16 35 0 40
15 66 52 87 31 18 30 59 -2 99 -18 23 -30 50 -30 67 0 24 -3 28 -19 23 -23 -7
-41 19 -41 59 0 33 -10 56 -24 56 -12 0 -66 57 -66 70 0 4 -7 13 -15 20 -25
20 -18 47 13 52 15 3 35 9 45 13 13 6 21 -2 36 -36 11 -24 17 -55 15 -73 -7
-45 33 -110 70 -114 24 -3 27 -7 23 -29 -6 -30 13 -83 29 -83 7 0 18 -2 26 -5
7 -3 19 -1 26 4 11 7 10 16 -7 49 -25 48 -25 52 -8 52 16 0 40 -47 31 -61 -3
-6 -1 -16 6 -24 8 -10 8 -19 1 -34 -6 -11 -15 -31 -20 -44 -9 -22 -7 -24 11
-19 17 4 19 2 13 -18 -6 -19 -4 -22 9 -17 26 10 20 -26 -9 -53 -20 -19 -27
-21 -40 -10 -21 17 -45 -4 -45 -40 0 -14 -3 -30 -7 -34 -5 -4 -9 -33 -10 -64
-1 -31 -5 -77 -7 -102 -29 -263 -23 -400 17 -387 23 7 38 117 32 231 -6 100
-5 108 10 96 23 -19 44 2 24 26 -20 24 -20 156 1 152 12 -3 15 -19 15 -71 0
-54 3 -67 16 -67 15 0 39 -19 39 -31 0 -4 -9 -5 -20 -2 -18 5 -20 0 -20 -48 0
-44 4 -57 21 -67 18 -12 21 -11 26 8 3 13 11 19 19 16 8 -3 14 -1 14 4 0 6 7
10 15 10 8 0 15 -7 15 -15 0 -8 -7 -15 -15 -15 -17 0 -20 -23 -5 -51 8 -14 6
-25 -6 -44 -16 -24 -15 -50 1 -102 6 -17 3 -23 -9 -23 -11 0 -16 -9 -16 -27 0
-20 3 -24 9 -15 13 22 46 10 49 -18 2 -14 8 -29 12 -35 7 -9 8 -39 2 -126 -2
-30 -30 -47 -39 -23 -3 8 3 24 12 34 15 17 16 20 3 20 -31 0 -38 -23 -23 -74
13 -41 12 -58 -1 -133 -14 -80 -42 -143 -65 -143 -14 0 -11 -26 6 -40 17 -14
12 -50 -12 -89 -10 -16 -13 -36 -9 -63 5 -31 3 -40 -11 -45 -28 -10 -32 -23
-15 -54 16 -26 15 -29 -4 -51 -32 -36 -54 -76 -54 -97 0 -31 -21 -69 -46 -86
-12 -8 -25 -29 -29 -47 -4 -18 -34 -87 -66 -154 -33 -66 -59 -126 -59 -133 0
-13 -30 -58 -72 -109 -19 -22 -27 -42 -26 -65 1 -34 -24 -80 -96 -176 -44 -60
-56 -79 -131 -226 -31 -61 -62 -107 -82 -122 -18 -14 -33 -33 -33 -43 0 -9 -9
-29 -20 -43 -11 -14 -20 -29 -20 -34 0 -5 -19 -27 -41 -48 -23 -22 -46 -52
-53 -66 -6 -14 -28 -46 -49 -70 -51 -59 -167 -238 -167 -258 0 -25 -51 -95
-60 -82 -5 9 -11 7 -20 -4 -10 -12 -11 -18 -2 -24 11 -7 5 -51 -7 -51 -10 0
-41 -56 -41 -75 0 -13 6 -15 30 -10 44 10 37 -9 -15 -45 -25 -17 -45 -37 -45
-45 0 -20 26 -19 34 0 3 8 14 15 24 15 11 0 24 13 33 32 15 35 49 51 49 24 0
-15 33 -35 83 -50 23 -7 13 -26 -14 -26 -25 0 -24 -14 3 -32 26 -18 16 -41
-15 -33 -21 5 -21 5 1 -11 14 -10 46 -18 78 -20 45 -2 54 1 54 15 0 9 5 22 12
29 17 17 2 27 -17 12 -10 -9 -19 -10 -26 -3 -6 6 -1 14 14 22 21 11 27 9 55
-16 36 -31 40 -48 15 -76 -17 -18 -17 -19 2 -33 20 -15 53 -18 79 -8 11 4 16
19 16 45 0 48 26 54 41 9 13 -36 29 -39 29 -5 0 32 11 32 31 -1 l16 -26 7 26
c7 27 26 36 26 12 0 -31 -31 -88 -46 -82 -8 3 -14 0 -14 -8 0 -18 26 -27 55
-20 33 8 41 -13 13 -35 l-23 -19 27 -13 c15 -6 25 -16 22 -20 -3 -5 -14 -4
-25 1 -10 6 -19 8 -19 4 0 -4 -9 1 -19 10 -22 20 -46 22 -106 10 -36 -7 -39
-6 -27 9 11 13 10 17 -5 25 -10 5 -32 13 -50 16 -17 4 -37 14 -44 22 -6 8 -23
14 -38 14 -15 0 -31 4 -36 8 -6 4 -36 18 -68 31 -55 22 -59 22 -71 6 -12 -17
-16 -16 -59 9 -26 15 -60 46 -76 69 -17 23 -35 47 -41 54 -15 18 -12 43 5 49
23 9 18 26 -7 22 -19 -2 -23 1 -21 22 1 20 -2 17 -18 -15 -10 -22 -17 -49 -14
-60 6 -30 -6 -67 -20 -61 -7 2 -16 -10 -23 -29 -7 -25 -7 -35 1 -38 9 -3 8
-12 -1 -32 -9 -19 -16 -25 -21 -17 -5 8 -14 -1 -25 -25 l-18 -38 21 19 21 19
0 -56 c0 -48 -6 -65 -35 -112 -20 -30 -40 -55 -46 -55 -5 0 -14 -10 -20 -23
-8 -18 -6 -35 8 -73 18 -47 18 -50 2 -79 -26 -45 -61 -137 -49 -130 6 4 25 31
41 61 36 63 48 73 63 52 6 -8 19 -17 29 -21 21 -8 22 -23 2 -31 -9 -3 -18 1
-21 9 -4 8 -10 15 -15 15 -8 0 -89 -130 -89 -143 0 -15 31 -6 37 11 4 9 13 23
20 30 7 7 13 19 13 26 0 8 7 19 15 26 12 10 18 10 30 0 12 -10 16 -9 21 4 9
23 23 20 34 -10 6 -14 14 -22 20 -19 5 3 10 -3 10 -14 0 -10 12 -28 27 -39 24
-17 25 -22 14 -36 -11 -13 -11 -22 -3 -41 6 -13 8 -27 3 -29 -12 -8 -21 4 -21
26 0 26 -26 23 -33 -4 -4 -14 0 -29 10 -40 16 -18 12 -22 -19 -19 -10 1 -18
-3 -18 -8 0 -6 5 -11 11 -11 14 0 39 -25 39 -39 0 -19 -19 -12 -42 14 -12 14
-29 25 -39 25 -23 0 -103 67 -133 112 -16 24 -22 44 -19 59 4 15 3 20 -6 15
-29 -18 -56 137 -37 219 17 81 -73 -136 -128 -308 l-63 -194 31 -89 c32 -91
72 -159 123 -205 53 -50 238 -157 323 -189 94 -34 291 -86 475 -124 294 -61
640 -67 930 -15 224 41 458 99 574 143 94 36 157 73 146 84 -3 4 -9 2 -13 -4
-8 -12 -272 -106 -357 -128 -33 -8 -94 -20 -135 -27 -41 -7 -82 -16 -91 -20
-8 -4 -74 -20 -145 -34 -115 -24 -152 -27 -349 -27 -153 -1 -233 3 -262 12
-23 7 -40 16 -38 20 2 4 -15 15 -38 26 l-42 18 245 7 c368 10 626 35 745 70
177 53 400 150 510 221 84 54 208 182 234 241 45 101 59 186 42 252 -12 48
-123 302 -150 344 -8 14 -17 19 -19 12 -3 -9 -7 -9 -18 0 -26 21 -23 5 13 -71
19 -41 37 -69 40 -62 8 21 21 13 32 -20 9 -24 8 -34 -1 -40 -9 -5 -10 -8 -1
-8 6 0 17 -17 24 -37 6 -21 16 -44 22 -51 7 -9 6 -25 -3 -52 -12 -37 -30 -54
-30 -29 0 7 -9 9 -23 5 -23 -5 -23 -4 -19 49 2 30 1 55 -4 55 -14 0 -74 -73
-81 -98 -5 -22 -3 -24 15 -20 19 5 21 0 27 -46 7 -58 -9 -217 -24 -244 -8 -13
-10 -4 -11 39 0 31 -6 63 -14 75 -14 18 -15 18 -20 -6 -3 -14 -4 -34 -4 -45 1
-11 1 -35 0 -54 -2 -28 -5 -32 -22 -28 -10 3 -21 0 -23 -6 -2 -6 -11 -8 -20
-4 -12 5 -15 14 -10 42 3 21 1 46 -7 60 -8 14 -11 40 -7 64 5 37 3 40 -24 50
-29 10 -39 34 -19 46 5 3 10 10 10 16 0 5 -9 0 -20 -11 -11 -11 -38 -27 -59
-36 -40 -16 -58 -38 -40 -50 5 -3 17 0 26 7 13 11 15 11 12 -6 -4 -22 -69 -59
-81 -47 -4 4 -19 45 -33 92 -14 47 -28 92 -31 101 -4 11 6 23 32 38 28 17 34
25 25 34 -9 9 -16 9 -31 -1 -11 -6 -27 -12 -35 -12 -8 0 -15 -4 -15 -10 0 -5
-7 -10 -14 -10 -12 0 -13 6 -5 29 6 16 9 42 7 57 -3 23 -11 30 -53 43 -39 13
-50 20 -50 37 0 12 -9 31 -19 43 -11 12 -17 23 -15 24 18 15 136 67 152 67 11
0 29 9 41 21 12 11 41 34 65 51 l43 30 -33 20 c-19 11 -51 36 -72 54 -20 19
-45 34 -56 34 -10 0 -24 7 -31 15 -9 10 -9 15 -1 15 21 0 11 19 -19 33 -24 12
-37 13 -67 4 -28 -9 -37 -9 -41 1 -5 17 -48 15 -77 -4 -23 -15 -48 -15 -95 -3
-12 3 -14 -4 -12 -28 4 -37 4 -37 -88 -32 -30 2 -73 3 -95 4 -83 3 -83 3 -57
25 19 16 21 23 12 40 -9 16 -8 25 1 36 17 21 26 17 38 -17 7 -21 16 -29 29
-27 10 2 26 -3 34 -10 12 -10 20 -9 39 5 13 10 41 27 61 37 37 19 45 33 74
130 12 41 33 44 40 8 4 -21 11 -29 20 -25 8 3 21 0 29 -7 12 -10 15 -10 15 3
0 8 -7 17 -15 21 -10 3 -15 19 -15 46 0 41 7 49 28 28 17 -17 15 10 -3 42 -8
16 -10 29 -4 36 5 7 12 36 15 65 3 30 9 65 14 79 13 37 23 180 13 180 -4 0
-18 -30 -30 -68 -33 -104 -95 -225 -158 -307 -8 -10 -15 -25 -15 -33 0 -19
-29 -74 -51 -94 -12 -12 -17 -29 -15 -58 2 -29 0 -38 -7 -31 -16 16 -45 13
-55 -5 -7 -12 -10 -13 -19 -2 -19 24 -23 62 -8 78 7 8 16 37 18 65 3 27 10 51
16 53 6 2 11 10 11 18 0 8 7 17 16 21 13 5 15 15 9 49 -3 26 -2 45 5 49 6 3 8
11 4 16 -9 16 -13 109 -4 109 4 0 18 -16 30 -36 16 -25 26 -32 33 -25 8 8 6
21 -6 46 -23 48 -22 76 3 82 27 7 25 25 -6 62 -28 33 -25 51 9 51 39 0 50 14
45 59 -2 22 -1 41 1 41 3 0 15 -10 28 -22 19 -18 28 -20 41 -12 9 6 18 20 19
30 1 10 5 29 9 42 5 18 2 22 -14 22 -12 0 -25 -8 -31 -17 -8 -15 -12 -16 -34
-4 -31 16 -67 6 -68 -20 -3 -38 -4 -42 -14 -46 -18 -6 -42 50 -44 103 -2 53
-3 51 62 82 4 2 5 -8 1 -22 -8 -34 14 -34 76 -2 52 26 57 40 18 44 -16 2 -28
9 -28 15 0 7 12 24 28 38 81 76 108 135 76 170 -22 25 -14 47 9 24 10 -9 19
-16 21 -14 21 29 86 141 86 149 0 6 -5 20 -12 33 -26 51 -27 55 -13 67 21 18
18 40 -7 68 l-23 25 22 -12 c40 -20 56 -14 50 18 -4 20 -2 31 8 35 23 9 6 37
-19 31 -11 -3 -27 -1 -35 4 -18 12 -6 45 14 37 8 -3 21 -8 28 -11 18 -8 41 33
27 50 -12 15 -70 26 -70 13 0 -4 -4 -8 -10 -8 -5 0 -10 25 -10 55 0 41 4 55
14 55 26 0 29 22 6 40 -13 9 -20 22 -16 28 9 15 -4 42 -20 42 -21 0 -19 13 13
69 2 2 9 -2 18 -9 13 -10 15 -9 15 8 0 12 -4 24 -10 27 -5 3 -10 17 -10 30 0
13 -6 25 -12 28 -10 3 -10 9 0 29 15 27 70 58 102 58 11 0 20 4 20 9 0 17 -29
33 -50 26 -21 -7 -21 -6 -7 17 8 12 15 42 15 66 -1 40 -10 53 -23 32 -11 -17
-28 -11 -20 8 4 9 7 27 6 39 0 16 4 21 14 17 8 -4 15 -15 15 -25 0 -21 15 -25
26 -8 4 7 0 16 -9 20 -12 7 -14 16 -7 39 7 25 5 32 -10 40 -11 6 -30 8 -43 4
-28 -6 -47 23 -25 38 14 9 62 6 91 -7 12 -5 17 -3 17 9 0 9 5 16 10 16 21 0 9
48 -16 65 -26 17 -26 17 -6 35 11 11 32 18 46 17 20 -1 31 5 44 27 9 16 33 46
52 66 19 20 44 59 54 85 l19 48 -31 28 c-18 16 -38 26 -45 23 -8 -3 -20 2 -27
11 -23 28 -30 15 -23 -47 4 -45 3 -59 -5 -54 -7 4 -12 23 -12 43 0 22 -7 41
-17 49 -17 13 -17 15 5 34 13 11 21 24 17 30 -11 18 6 50 26 50 15 0 19 -6 17
-28 -2 -35 9 -54 30 -50 10 1 23 -1 30 -6 26 -16 58 60 46 109 -5 20 -3 23 14
18 13 -3 25 3 34 16 8 12 17 18 21 15 10 -11 47 7 47 23 0 9 6 13 14 10 25
-10 28 24 4 45 l-23 20 -6 -32 c-9 -40 -13 -44 -39 -30 -17 9 -25 8 -39 -4
-16 -15 -19 -15 -34 2 -10 10 -17 24 -17 31 0 6 -10 16 -22 21 -53 23 -78 45
-78 69 0 9 7 11 25 7 18 -5 25 -2 25 9 0 8 -4 15 -8 15 -5 0 -19 9 -32 20 -33
29 -40 25 -39 -22 0 -24 0 -51 -1 -62 -1 -10 6 -26 14 -35 9 -10 16 -31 15
-47 0 -16 -3 -23 -6 -16 -2 6 -11 12 -19 12 -7 0 -16 11 -20 25 -3 14 -16 32
-27 40 -19 13 -19 17 -7 42 7 15 15 33 16 38 1 6 8 25 16 43 10 25 10 37 0 52
-14 23 -7 47 20 61 13 7 17 16 13 27 -4 9 -9 23 -12 30 -4 10 1 11 21 6 22 -5
26 -3 26 15 0 12 -4 21 -10 21 -5 0 -10 9 -10 21 0 12 5 19 13 17 6 -3 12 -10
12 -15 0 -25 14 -22 39 8 27 31 30 53 8 55 -7 1 -15 2 -19 3 -3 0 1 9 9 19 20
22 32 61 29 90 -2 15 3 22 14 22 13 0 16 6 12 21 -6 23 11 69 25 69 19 0 19
-31 1 -62 -20 -36 -17 -57 20 -126 14 -25 15 -37 7 -53 -12 -22 -7 -49 10 -49
5 0 16 15 24 33 15 34 66 92 88 99 7 3 12 18 10 37 -3 38 13 71 34 71 16 0 47
62 59 115 l7 30 -37 -38 c-36 -36 -55 -40 -55 -11 0 8 6 14 14 14 8 0 17 9 21
20 3 11 18 29 33 40 22 18 24 24 15 39 -8 13 -8 22 -1 29 7 7 6 17 -1 31 -10
18 -9 21 8 21 12 0 22 9 27 23 3 12 15 34 25 49 11 14 19 29 19 32 0 12 -28 6
-40 -9 -18 -22 -33 -19 -20 4 5 11 10 31 10 45 0 18 5 26 18 26 9 0 29 11 44
25 15 14 31 25 35 25 16 0 73 99 73 125 0 15 20 77 44 138 24 62 47 135 51
162 4 28 12 59 18 70 6 11 14 43 18 70 4 28 15 77 24 110 9 33 17 72 16 86 0
15 9 35 19 44 11 10 20 28 20 41 0 13 6 27 14 31 19 10 88 206 84 235 -2 14
-12 24 -28 28 -18 4 -21 8 -11 14 28 18 -15 180 -60 226 -33 32 -41 90 -13 90
8 0 20 14 25 30 6 17 15 30 19 30 18 0 17 31 -1 54 -22 28 -57 34 -77 14 -10
-10 -15 -10 -22 2 -5 8 -10 23 -10 33 0 23 -29 34 -41 16 -5 -8 -9 -44 -9 -82
0 -84 -18 -147 -42 -147 -24 0 -47 -49 -52 -109 -2 -28 -9 -58 -16 -66 -7 -8
-15 -36 -18 -63 -2 -26 -9 -53 -15 -59 -6 -9 -5 -18 3 -28 8 -9 10 -29 5 -57
-10 -67 -14 -74 -41 -87 -19 -8 -24 -16 -19 -32 4 -11 2 -25 -3 -32 -5 -7 -12
-24 -15 -38 -6 -22 -110 -159 -232 -304 -17 -20 -43 -25 -55 -9 -19 22 -55 17
-81 -11 -28 -28 -39 -31 -39 -10 0 8 -4 15 -10 15 -5 0 -10 7 -10 15 0 11 11
15 39 15 22 0 44 6 51 15 7 8 28 15 46 15 27 0 34 4 34 19 0 14 10 21 35 25
26 5 35 12 35 26 0 22 -16 25 -55 10 -42 -16 -50 0 -16 31 17 15 31 32 31 38
0 35 -67 13 -76 -25 -3 -13 -15 -26 -25 -29 -10 -4 -19 -13 -19 -21 0 -8 -5
-12 -10 -9 -8 5 -8 11 -1 19 15 17 3 27 -24 20 -13 -3 -26 -1 -29 5 -4 6 -15
11 -25 11 -10 0 -24 7 -31 15 -7 8 -21 15 -32 15 -14 0 -18 5 -14 16 3 9 -1
25 -9 37 -11 15 -15 17 -15 6 0 -8 5 -20 12 -27 9 -9 9 -12 0 -12 -21 0 -35
51 -38 142 -3 98 -6 108 -35 108 -23 0 -23 -1 -3 39 11 21 20 29 26 23 6 -6 6
-17 -1 -30 -13 -25 -5 -32 30 -25 28 5 29 4 29 -36 0 -55 49 -152 95 -187 19
-14 35 -33 35 -40 0 -25 28 -15 65 25 33 35 39 38 64 28 24 -9 31 -7 50 12 12
12 19 26 16 31 -8 13 -82 13 -89 1 -4 -5 -21 -9 -38 -8 -35 2 -45 21 -47 88
-1 19 -8 44 -16 55 -20 27 -19 28 18 42 20 7 41 25 52 45 10 17 36 46 58 62
44 32 65 60 55 71 -4 3 -22 -5 -40 -19 -18 -14 -42 -27 -53 -29 -11 -2 -26
-16 -33 -31 -12 -24 -18 -27 -42 -22 -16 3 -31 2 -35 -4 -3 -7 2 -11 14 -11
14 0 19 -5 15 -15 -8 -21 -30 -19 -55 6 -18 18 -19 25 -10 43 9 16 9 30 2 49
-11 30 -5 33 31 16 16 -7 32 -7 51 0 35 14 34 27 -3 40 -23 7 -30 16 -30 35 0
19 5 26 19 26 26 0 45 26 36 47 -10 22 -12 83 -4 83 4 0 9 8 13 18 3 9 9 24
12 32 5 12 4 13 -7 3 -7 -7 -17 -13 -21 -13 -13 0 -9 28 5 33 7 4 3 8 -11 13
-29 8 -54 55 -41 75 12 19 11 32 -4 53 -17 23 -43 12 -56 -25 -14 -40 -3 -86
24 -107 16 -13 24 -33 29 -67 7 -60 -12 -101 -64 -140 -33 -25 -35 -25 -38 -6
-2 11 6 29 17 40 33 33 51 122 32 159 -28 52 -39 91 -34 113 8 35 43 69 69 69
13 0 25 8 28 18 4 9 26 38 51 64 28 30 42 54 39 63 -5 11 -2 13 10 9 12 -5 16
0 16 20 0 28 -9 33 -28 14 -15 -15 -42 -19 -42 -7 0 5 5 9 11 9 8 0 8 5 -1 15
-7 8 -16 15 -21 15 -5 0 -6 -7 -3 -15 4 -9 0 -15 -9 -15 -9 0 -20 -8 -26 -17
-8 -15 -13 -16 -30 -6 -11 7 -23 9 -26 4 -3 -5 -18 -3 -34 5 -16 8 -44 14 -63
14 -50 -1 -150 7 -186 15 -21 4 -32 3 -32 -5 0 -6 -5 -8 -10 -5 -6 4 -8 10 -5
15 8 12 -13 17 -90 19 -38 1 -80 5 -92 7 -12 3 -79 6 -149 7 -92 2 -129 5
-132 15 -2 6 -19 12 -37 12 -18 0 -46 7 -61 15 -16 8 -37 12 -46 9 -13 -4 -21
2 -28 20 -10 28 -37 34 -71 16 -14 -8 -19 -8 -17 1 2 7 -12 16 -30 21 -22 6
-32 14 -29 22 3 8 -4 24 -16 37 -13 14 -22 18 -25 11 -6 -20 -21 -14 -61 26
-21 21 -44 36 -51 34 -7 -3 -27 11 -44 30 -36 40 -86 57 -78 26 3 -11 -3 -25
-14 -33 -26 -19 -88 -19 -104 1 -12 13 -8 14 40 8 l53 -7 -6 25 c-5 20 -2 29
17 41 30 20 42 85 20 107 -14 13 -17 13 -28 -2 -17 -23 -29 -23 -51 2 -14 16
-16 23 -7 32 7 7 12 25 12 40 0 27 2 29 34 23 39 -8 51 4 42 41 -5 20 -11 23
-32 18 -19 -5 -29 -1 -40 15 -21 29 -35 27 -71 -11 -30 -33 -43 -69 -46 -138
-2 -31 1 -35 27 -40 38 -7 47 -30 11 -30 -37 0 -56 23 -67 78 -4 26 -13 49
-18 50 -17 6 -11 23 6 20 25 -4 28 19 5 32 -12 6 -21 16 -21 22 0 20 -51 59
-70 53 -10 -3 -21 -1 -25 5 -3 5 -24 10 -46 10 -54 0 -47 23 9 30 32 4 39 8
33 19 -6 10 -10 10 -16 2 -5 -9 -13 -8 -31 4 -21 13 -31 14 -60 5 -44 -15 -59
-4 -45 32 10 26 36 42 51 33 13 -8 20 10 22 52 2 43 53 103 88 103 11 0 20 4
20 9 0 5 18 11 39 15 21 3 41 12 44 20 7 16 -11 36 -32 36 -17 0 9 25 64 61
l30 19 -26 0 c-58 0 -89 -12 -89 -34 0 -14 -10 -26 -31 -35 -16 -7 -33 -11
-36 -7 -3 3 2 8 11 12 9 3 16 11 16 18 0 6 16 26 35 45 19 19 35 37 35 40 0 3
-10 11 -23 17 -19 9 -26 7 -40 -13z m-97 -168 c-7 -9 -15 -13 -17 -11 -7 7 7
26 19 26 6 0 6 -6 -2 -15z m-75 -35 c3 -5 -4 -19 -16 -31 -24 -24 -45 -13 -34
20 6 21 39 29 50 11z m-217 -118 c2 -7 -3 -12 -12 -12 -9 0 -16 7 -16 16 0 17
22 14 28 -4z m282 -117 c0 -8 -7 -15 -16 -15 -14 0 -14 3 -4 15 7 8 14 15 16
15 2 0 4 -7 4 -15z m-276 -41 c3 -9 6 -30 6 -47 0 -45 14 -65 28 -41 10 17 11
17 31 -6 26 -32 26 -40 1 -40 -13 0 -20 -7 -20 -20 0 -11 -7 -23 -15 -26 -8
-4 -15 -14 -15 -24 0 -21 -25 -44 -40 -35 -13 8 -13 58 0 71 6 6 6 23 -1 47
-6 24 -7 49 0 72 6 21 6 37 0 41 -14 8 -11 24 5 24 8 0 17 -7 20 -16z m226
-69 c-13 -14 -28 -25 -34 -25 -5 0 3 13 19 30 16 16 31 28 33 25 3 -3 -5 -16
-18 -30z m-390 -20 c-14 -17 -30 -11 -30 10 0 15 33 26 38 13 2 -5 -2 -15 -8
-23z m550 21 c0 -15 -24 -28 -34 -19 -7 7 13 33 25 33 5 0 9 -6 9 -14z m-210
-36 c0 -5 -5 -10 -11 -10 -5 0 -7 5 -4 10 3 6 8 10 11 10 2 0 4 -4 4 -10z
m270 2 c0 -12 -23 -32 -37 -32 -11 0 -11 4 -1 20 13 20 38 28 38 12z m-630
-38 c0 -16 -23 -44 -35 -44 -18 0 -20 21 -3 38 12 12 38 17 38 6z m348 -29 c6
-14 18 -25 27 -25 18 0 20 -16 3 -26 -6 -4 -19 2 -29 14 -22 28 -33 28 -49 -3
-12 -22 -11 -27 4 -38 10 -7 16 -19 14 -27 -2 -10 5 -15 20 -14 13 0 19 -3 14
-8 -5 -5 -33 -8 -63 -6 -50 3 -54 5 -57 30 -3 29 14 53 61 83 15 9 27 24 27
31 0 22 16 16 28 -11z m287 16 c3 -5 1 -12 -5 -16 -5 -3 -10 1 -10 9 0 18 6
21 15 7z m-711 -36 c5 0 11 -6 14 -13 3 -9 -3 -13 -19 -10 -14 2 -25 11 -27
22 -3 13 0 16 10 10 7 -5 17 -9 22 -9z m592 -22 c23 -15 28 -15 60 0 36 18 37
17 28 -7 -4 -10 -18 -16 -37 -16 -35 0 -97 20 -97 32 0 13 19 9 46 -9z m-386
-28 c0 -8 -4 -15 -10 -15 -5 0 -10 7 -10 15 0 8 5 15 10 15 6 0 10 -7 10 -15z
m-320 -35 c0 -5 -2 -10 -4 -10 -3 0 -8 5 -11 10 -3 6 -1 10 4 10 6 0 11 -4 11
-10z m321 -6 c56 -25 61 -29 57 -39 -2 -5 -20 -9 -41 -7 -35 2 -37 1 -27 -17
5 -11 18 -25 28 -30 16 -9 16 -11 1 -26 -19 -20 -59 -12 -59 11 0 8 -4 14 -9
14 -4 0 -11 19 -14 43 -5 32 -2 45 10 55 20 15 13 15 54 -4z m609 -69 c0 -30
-21 -25 -35 9 -21 51 -19 59 10 30 14 -14 25 -31 25 -39z m-720 17 c0 -15 -2
-15 -10 -2 -13 20 -13 33 0 25 6 -3 10 -14 10 -23z m397 -4 c13 -12 23 -33 23
-47 0 -26 0 -26 -19 5 -11 18 -24 35 -30 38 -12 8 -15 26 -4 26 4 0 17 -10 30
-22z m-191 -63 c3 -14 11 -25 17 -25 6 0 7 -3 4 -6 -10 -10 -57 24 -57 41 0
25 29 17 36 -10z m82 3 c-3 -7 -11 -13 -18 -13 -7 0 -15 6 -17 13 -3 7 4 12
17 12 13 0 20 -5 18 -12z m112 -26 c0 -13 -30 -52 -41 -52 -5 0 -9 14 -9 30 0
25 4 30 25 30 14 0 25 -3 25 -8z m-649 -55 c-1 -12 -15 -9 -19 4 -3 6 1 10 8
8 6 -3 11 -8 11 -12z m106 -3 c-3 -3 -12 -4 -19 -1 -8 3 -5 6 6 6 11 1 17 -2
13 -5z m947 -234 c-13 -13 -49 24 -39 40 5 9 14 6 28 -9 15 -14 18 -24 11 -31z
m52 -7 c-8 -8 -36 5 -36 17 0 7 6 7 21 0 11 -7 18 -14 15 -17z m-489 -145 c-3
-8 -6 -5 -6 6 -1 11 2 17 5 13 3 -3 4 -12 1 -19z m758 -56 c-8 -8 -25 10 -19
20 4 6 9 5 15 -3 4 -7 6 -15 4 -17z m-1135 -78 c0 -16 -16 -19 -25 -4 -8 13 4
32 16 25 5 -4 9 -13 9 -21z m454 -90 c3 -9 15 -14 28 -13 13 2 28 0 35 -4 6
-4 39 -10 72 -13 42 -5 61 -11 61 -20 0 -8 -9 -14 -19 -14 -11 0 -23 -4 -26
-10 -9 -15 -54 -12 -71 5 -9 8 -26 15 -39 15 -22 0 -65 41 -65 61 0 15 18 10
24 -7z m360 -135 c44 -29 64 -49 51 -49 -4 0 -24 14 -45 30 -21 17 -45 30 -54
30 -9 0 -16 5 -16 10 0 17 17 11 64 -21z m-64 -38 c28 -18 40 -31 40 -47 0
-11 -27 -13 -45 -3 -6 3 -30 7 -55 8 -54 3 -63 10 -54 45 6 24 9 25 48 19 22
-3 52 -13 66 -22z m1394 -95 c-4 -33 -8 -74 -8 -90 -1 -16 -7 -31 -13 -33 -17
-6 -17 48 -1 133 15 81 32 73 22 -10z m-946 16 c2 -7 -6 -12 -17 -12 -21 0
-27 11 -14 24 9 9 26 2 31 -12z m-464 -7 c15 -8 32 -12 37 -9 6 3 21 -1 34
-10 13 -9 31 -16 39 -16 18 0 46 -38 40 -54 -3 -7 4 -21 16 -31 27 -24 25 -35
-6 -35 -17 0 -28 6 -31 20 -3 11 -13 20 -23 20 -12 0 -17 6 -13 18 3 14 -14
25 -86 56 -86 37 -106 56 -58 56 12 0 35 -7 51 -15z m336 -52 c-1 -14 -27 -43
-39 -43 -15 0 -14 10 6 32 16 18 33 24 33 11z m394 -30 c17 -34 41 -157 56
-283 11 -87 20 -125 66 -260 9 -25 21 -65 29 -90 16 -59 42 -132 71 -201 14
-33 25 -84 28 -125 2 -39 12 -96 21 -127 17 -59 17 -137 0 -138 -5 0 -17 35
-26 78 -9 43 -23 95 -32 117 -10 21 -17 47 -17 57 0 10 -9 27 -20 37 -12 11
-18 26 -15 34 4 9 2 19 -4 23 -6 3 -11 13 -11 21 0 8 4 13 9 9 22 -13 19 18
-9 85 -17 40 -30 79 -30 86 0 7 -11 21 -25 32 -14 11 -25 29 -25 41 0 12 -4
21 -9 21 -11 0 -31 123 -24 150 3 11 1 26 -4 33 -6 6 -9 37 -8 67 3 95 -32
283 -59 318 -8 11 -12 11 -23 -4 -18 -25 -29 -9 -13 21 18 34 55 33 74 -2z
m-434 -109 c23 -63 22 -74 -4 -45 -10 11 -25 17 -34 14 -12 -5 -14 -2 -7 13 4
10 7 31 6 47 -2 45 16 31 39 -29z m1227 -43 c16 -29 23 -55 21 -79 -4 -45 -28
-56 -28 -13 0 16 -4 33 -10 36 -5 3 -10 17 -10 30 0 13 -4 26 -9 29 -5 3 -11
15 -14 26 -10 37 23 18 50 -29z m-1175 -50 c7 -10 33 -35 57 -55 69 -58 119
-126 91 -126 -15 0 -147 135 -164 168 -18 34 -6 44 16 13z m78 -11 c0 -5 -7
-10 -15 -10 -8 0 -15 5 -15 10 0 6 7 10 15 10 8 0 15 -4 15 -10z m846 -45 c-2
-7 1 -19 7 -26 10 -11 9 -11 -5 0 -19 14 -26 57 -7 46 6 -4 8 -13 5 -20z
m-946 -25 c0 -5 -2 -10 -4 -10 -3 0 -8 5 -11 10 -3 6 -1 10 4 10 6 0 11 -4 11
-10z m1005 -40 c3 -5 -1 -10 -9 -10 -9 0 -16 5 -16 10 0 6 4 10 9 10 6 0 13
-4 16 -10z m-1035 -10 c0 -5 -5 -10 -11 -10 -5 0 -7 5 -4 10 3 6 8 10 11 10 2
0 4 -4 4 -10z m-140 -20 c0 -5 -4 -10 -10 -10 -5 0 -10 5 -10 10 0 6 5 10 10
10 6 0 10 -4 10 -10z m130 -70 c0 -5 -4 -10 -10 -10 -5 0 -10 5 -10 10 0 6 5
10 10 10 6 0 10 -4 10 -10z m280 -10 c0 -5 -5 -10 -11 -10 -5 0 -7 5 -4 10 3
6 8 10 11 10 2 0 4 -4 4 -10z m920 -40 c0 -5 -4 -10 -10 -10 -5 0 -10 5 -10
10 0 6 5 10 10 10 6 0 10 -4 10 -10z m-800 -25 c0 -8 -7 -15 -15 -15 -8 0 -15
7 -15 15 0 8 7 15 15 15 8 0 15 -7 15 -15z m855 -34 c7 -12 -12 -24 -25 -16
-11 7 -4 25 10 25 5 0 11 -4 15 -9z m-2500 -36 c11 -19 16 -37 13 -41 -4 -3
11 -35 33 -70 55 -90 53 -168 -3 -117 -23 20 -23 32 0 49 16 13 16 15 0 28
-10 7 -18 18 -18 23 0 13 -39 63 -50 63 -4 0 -10 -9 -13 -21 -6 -21 -6 -21
-31 -2 -31 22 -34 37 -6 28 34 -11 52 13 45 57 -8 48 6 49 30 3z m1612 10 c6
-14 7 -27 2 -31 -5 -3 -9 -19 -9 -36 0 -26 -2 -29 -15 -18 -17 14 -20 50 -5
50 5 0 7 13 4 30 -8 36 7 39 23 5z m-567 -6 c0 -5 -5 -15 -10 -22 -44 -52 -60
-73 -60 -79 0 -5 -4 -8 -10 -8 -17 0 -11 26 9 44 11 10 27 33 36 52 14 31 35
38 35 13z m125 1 c3 -5 -1 -10 -9 -10 -9 0 -16 5 -16 10 0 6 4 10 9 10 6 0 13
-4 16 -10z m15 -70 c0 -5 -4 -10 -10 -10 -5 0 -10 5 -10 10 0 6 5 10 10 10 6
0 10 -4 10 -10z m188 -23 c4 -19 -6 -21 -27 -8 -16 10 -5 34 12 28 7 -2 13
-11 15 -20z m1245 7 c10 -10 -12 -44 -29 -44 -20 0 -30 30 -13 41 17 10 33 11
42 3z m-939 -31 c3 -10 5 -55 5 -99 -1 -87 5 -120 27 -145 18 -20 10 -43 -22
-64 -13 -8 -24 -24 -24 -34 0 -10 -7 -25 -16 -32 -14 -12 -20 -9 -41 16 -23
26 -25 35 -19 84 22 203 28 236 41 244 8 4 15 17 15 27 0 25 27 26 34 3z
m-504 -32 c0 -13 -26 -32 -33 -24 -8 7 11 33 24 33 5 0 9 -4 9 -9z m-870 -11
c0 -5 -4 -10 -10 -10 -5 0 -10 5 -10 10 0 6 5 10 10 10 6 0 10 -4 10 -10z
m2155 -10 c3 -5 -1 -10 -9 -10 -9 0 -16 5 -16 10 0 6 4 10 9 10 6 0 13 -4 16
-10z m-1165 -20 c0 -5 -4 -10 -10 -10 -5 0 -10 5 -10 10 0 6 5 10 10 10 6 0
10 -4 10 -10z m-906 -15 c3 -9 0 -15 -9 -15 -8 0 -15 7 -15 15 0 8 4 15 9 15
5 0 11 -7 15 -15z m203 -17 c-3 -7 -5 -2 -5 12 0 14 2 19 5 13 2 -7 2 -19 0
-25z m-434 -3 c10 -14 14 -25 10 -25 -9 0 -43 36 -43 45 0 12 17 2 33 -20z
m1067 1 c0 -3 -4 -8 -10 -11 -5 -3 -10 -1 -10 4 0 6 5 11 10 11 6 0 10 -2 10
-4z m300 -12 c0 -8 -5 -25 -11 -36 -14 -26 4 -49 23 -30 7 7 16 12 20 12 15 0
8 -29 -11 -47 -11 -10 -27 -40 -36 -67 -16 -47 -16 -50 1 -63 15 -11 19 -29
21 -101 1 -48 4 -98 6 -112 2 -14 1 -36 -2 -48 l-6 -24 -28 26 c-31 29 -47 32
-65 14 -22 -22 -13 -38 21 -38 28 0 34 -5 45 -32 10 -27 10 -35 -1 -43 -7 -5
-18 -22 -24 -37 -10 -23 -9 -27 8 -31 20 -5 26 -32 9 -42 -14 -9 -70 36 -70
56 0 10 -9 21 -21 24 -11 4 -18 12 -15 18 3 7 9 20 12 30 4 9 10 17 15 17 5 0
9 5 9 10 0 6 -11 8 -25 4 -19 -5 -25 -2 -25 10 0 21 -26 21 -34 0 -3 -8 -11
-12 -16 -9 -6 4 -16 -7 -23 -24 -14 -39 -22 -39 -41 -1 -14 30 -14 30 12 31
17 1 21 3 10 6 -19 5 -24 38 -8 48 14 9 3 25 -17 25 -8 0 -30 13 -48 29 -23
20 -40 27 -58 24 -34 -7 -44 15 -13 27 14 5 26 14 26 19 0 5 20 18 45 30 24
11 49 29 54 40 12 22 89 62 97 50 3 -5 25 -9 50 -9 36 0 44 3 44 19 0 10 9 30
20 44 11 14 20 28 20 31 0 12 -28 5 -41 -10 -11 -14 -81 -54 -94 -54 -14 0 -2
29 21 51 14 13 32 39 40 58 14 33 14 33 39 17 34 -22 36 -21 29 23 -6 38 8 81
26 81 6 0 10 -7 10 -16z m-675 -58 c86 -10 97 -14 86 -34 -7 -12 -5 -22 6 -34
13 -15 13 -18 2 -18 -23 0 -179 82 -173 92 3 4 8 7 12 4 4 -2 34 -7 67 -10z
m930 -50 c30 -44 27 -56 -8 -29 -24 17 -40 56 -29 68 7 6 5 7 37 -39z m-959
-7 c7 -12 -15 -31 -31 -26 -5 2 -11 11 -13 20 -4 19 32 24 44 6z m-531 -19 c3
-5 -1 -10 -9 -10 -9 0 -16 5 -16 10 0 6 4 10 9 10 6 0 13 -4 16 -10z m1563
-56 c-4 -24 -45 -37 -52 -17 -4 10 -2 13 8 10 8 -3 17 1 20 9 7 19 28 18 24
-2z m575 2 c3 -12 -52 -30 -61 -21 -9 9 29 36 46 33 7 -2 14 -7 15 -12z m-698
-76 c-1 -60 -16 -75 -31 -33 -12 32 3 96 20 90 6 -2 11 -28 11 -57z m843 40
c19 -12 32 -28 32 -40 0 -11 11 -41 24 -67 25 -48 50 -171 61 -293 5 -49 2
-70 -9 -85 -13 -17 -18 -18 -35 -7 -12 6 -30 12 -41 12 -11 0 -27 11 -36 25
-16 24 -16 27 2 46 16 18 17 25 6 65 -7 24 -12 57 -12 74 0 16 -4 32 -10 35
-5 3 -10 17 -10 29 0 13 -6 29 -14 35 -8 7 -17 27 -20 45 -4 22 -13 36 -26 39
-11 3 -20 12 -20 20 0 8 -9 17 -20 20 -11 3 -20 12 -20 19 0 21 37 38 105 47
6 0 25 -8 43 -19z m-2158 -42 c31 -23 38 -38 18 -38 -14 0 -58 40 -58 52 0 13
8 10 40 -14z m1430 -48 c0 -5 -2 -10 -4 -10 -3 0 -8 5 -11 10 -3 6 -1 10 4 10
6 0 11 -4 11 -10z m-1367 -38 c7 -28 48 -36 54 -11 6 20 28 26 38 9 9 -15 -14
-40 -36 -40 -11 0 -24 -11 -31 -25 -13 -29 -25 -31 -55 -10 -18 12 -20 20 -13
38 4 12 11 30 14 40 7 22 22 22 29 -1z m1437 -112 c0 -5 12 -22 26 -39 30 -36
38 -93 14 -98 -10 -2 -24 17 -42 57 -32 68 -36 103 -13 94 8 -4 15 -10 15 -14z
m-905 -10 c7 -12 -41 -44 -55 -35 -16 10 -12 21 13 33 28 14 35 14 42 2z
m1523 -8 c2 -7 -3 -12 -12 -12 -9 0 -16 7 -16 16 0 17 22 14 28 -4z m-1443
-32 c14 -16 16 -23 7 -32 -14 -14 -27 -4 -37 30 -8 27 6 29 30 2z m1302 -41
c43 -24 53 -36 46 -55 -3 -7 5 -23 16 -35 12 -13 21 -33 21 -46 0 -24 -33 -48
-56 -39 -24 9 -16 -21 11 -42 14 -11 28 -34 31 -51 7 -31 6 -32 -20 -20 -14 7
-26 17 -26 22 0 6 -3 8 -6 5 -3 -4 2 -20 11 -37 17 -34 12 -53 -24 -85 -29
-26 -51 -6 -51 45 0 21 -5 50 -12 63 -9 21 -8 29 4 43 13 15 14 28 8 71 -5 29
-7 59 -4 67 3 8 -5 25 -18 37 -37 35 -42 57 -15 68 33 13 43 12 84 -11z
m-1167 -9 c9 -6 15 -25 15 -54 0 -49 -12 -59 -32 -27 -10 16 -9 20 4 25 14 6
14 8 -1 24 -28 32 -19 53 14 32z m134 -11 c-3 -5 -10 -7 -15 -3 -5 3 -7 10 -3
15 3 5 10 7 15 3 5 -3 7 -10 3 -15z m936 -39 c0 -5 -4 -10 -10 -10 -5 0 -10 5
-10 10 0 6 5 10 10 10 6 0 10 -4 10 -10z m-565 -80 c3 -5 -1 -10 -9 -10 -9 0
-16 5 -16 10 0 6 4 10 9 10 6 0 13 -4 16 -10z m-951 -31 c-4 -6 -11 -6 -20 2
-21 17 -17 31 6 19 11 -6 18 -15 14 -21z m991 11 c-3 -5 -10 -10 -16 -10 -5 0
-9 5 -9 10 0 6 7 10 16 10 8 0 12 -4 9 -10z m770 -3 c19 -15 13 -37 -9 -37
-18 0 -39 27 -31 40 8 13 17 13 40 -3z m-1821 -62 c16 -25 11 -30 -18 -19 -17
6 -23 44 -7 44 5 0 16 -11 25 -25z m1301 -7 c1 -15 12 -39 25 -53 l24 -26 -22
-6 c-23 -6 -30 -29 -10 -35 7 -3 12 -23 13 -46 1 -27 8 -49 19 -60 18 -16 18
-15 12 25 -7 48 6 63 33 39 10 -9 23 -16 29 -16 7 0 12 -4 12 -10 0 -5 6 -10
14 -10 7 0 25 -9 39 -20 14 -11 37 -20 50 -20 16 0 28 -7 31 -18 3 -9 31 -44
61 -77 52 -55 55 -63 50 -95 -4 -19 -8 -55 -8 -80 -2 -40 -5 -45 -24 -44 -27
1 -27 0 -11 -26 10 -16 9 -23 -10 -43 -27 -28 -27 -35 -4 -60 16 -20 16 -20
-3 -12 -11 4 -30 10 -42 12 -13 3 -24 12 -24 19 -1 8 -2 20 -3 27 -1 6 6 12
14 12 9 0 15 10 16 25 1 51 4 60 19 60 8 0 15 9 15 20 0 31 -38 100 -55 100
-19 0 -19 -24 0 -40 19 -16 19 -36 1 -43 -8 -3 -18 -26 -21 -51 -8 -48 -29
-62 -40 -26 -4 11 -20 27 -36 35 -31 17 -34 22 -20 44 7 11 0 24 -26 49 -27
25 -33 36 -23 42 7 4 11 17 8 28 -4 15 -1 18 14 14 10 -2 24 -12 31 -21 7 -10
20 -20 31 -24 14 -6 16 -10 7 -21 -9 -10 -9 -16 -1 -21 18 -11 24 3 26 65 3
63 -9 77 -28 35 -11 -24 -38 -35 -38 -15 0 6 -10 30 -21 55 -12 26 -19 55 -16
67 6 22 -7 48 -24 48 -5 0 -9 -6 -9 -12 0 -7 -12 -38 -27 -70 -29 -60 -59 -79
-50 -33 4 23 -16 76 -41 108 -5 7 -12 26 -15 44 -5 23 -2 33 9 37 12 5 14 14
10 32 -5 18 -2 32 10 45 14 15 15 22 6 31 -19 19 -15 50 6 46 11 -2 17 -13 17
-30z m-487 -3 c0 -26 -29 -50 -50 -43 -8 3 32 59 48 67 1 1 2 -10 2 -24z
m-128 -21 c0 -15 -6 -24 -15 -24 -15 0 -21 40 -9 53 12 11 24 -3 24 -29z
m-379 5 c20 -10 69 -91 69 -113 0 -19 -15 -21 -29 -3 -51 62 -69 75 -121 88
-64 15 -64 15 -56 27 7 12 115 12 137 1z m117 -20 c-2 -6 -8 -10 -13 -10 -5 0
-11 4 -13 10 -2 6 4 11 13 11 9 0 15 -5 13 -11z m89 -33 c-7 -21 -33 -17 -45
8 -6 13 -8 26 -5 29 9 9 54 -25 50 -37z m341 -49 c2 -28 -1 -47 -7 -47 -6 0
-11 13 -11 28 0 15 -5 33 -11 39 -13 13 -2 36 14 30 7 -2 13 -25 15 -50z m112
-16 c0 -6 -4 -13 -10 -16 -5 -3 -10 -21 -11 -38 0 -30 -1 -31 -10 -9 -11 30
-1 72 17 72 8 0 14 -4 14 -9z m1040 -21 c0 -11 -7 -20 -15 -20 -15 0 -21 21
-8 33 12 13 23 7 23 -13z m-1584 -25 c-12 -38 -21 -44 -30 -19 -4 10 1 25 10
35 26 28 32 23 20 -16z m152 -52 c27 -39 46 -97 38 -118 -9 -25 -34 -1 -29 28
3 16 -5 33 -26 56 -17 18 -31 39 -31 47 0 23 27 16 48 -13z m392 -35 c0 -47
-14 -42 -25 10 -5 25 -3 32 9 32 12 0 16 -10 16 -42z m-240 7 c0 -16 -6 -25
-15 -25 -15 0 -21 31 -8 43 13 14 23 6 23 -18z m-432 -13 c2 -7 -6 -12 -17
-12 -21 0 -27 11 -14 24 9 9 26 2 31 -12z m97 -32 c3 -5 -1 -10 -9 -10 -9 0
-16 5 -16 10 0 6 4 10 9 10 6 0 13 -4 16 -10z m475 -59 c0 -54 2 -59 20 -54
24 6 26 -4 3 -29 -23 -26 -32 -23 -49 18 -19 44 -8 124 17 124 5 0 9 -27 9
-59z m-338 -56 c0 -5 -5 -11 -11 -13 -6 -2 -11 4 -11 13 0 9 5 15 11 13 6 -2
11 -8 11 -13z m873 -64 c3 -5 1 -12 -5 -16 -5 -3 -10 1 -10 9 0 18 6 21 15 7z
m-70 -93 c2 -29 8 -54 14 -56 16 -5 13 -42 -3 -42 -8 0 -19 12 -26 28 -6 15
-20 43 -31 62 -26 48 -25 78 4 82 29 4 37 -11 42 -74z m-655 68 c0 -3 -4 -8
-10 -11 -5 -3 -10 -1 -10 4 0 6 5 11 10 11 6 0 10 -2 10 -4z m210 -12 c0 -9
-5 -14 -12 -12 -18 6 -21 28 -4 28 9 0 16 -7 16 -16z m600 -89 c0 -8 -4 -15
-10 -15 -5 0 -10 7 -10 15 0 8 5 15 10 15 6 0 10 -7 10 -15z m95 -115 c3 -5 1
-10 -4 -10 -6 0 -11 5 -11 10 0 6 2 10 4 10 3 0 8 -4 11 -10z m224 -52 c11
-23 18 -44 16 -46 -10 -10 -35 9 -35 28 0 11 -4 20 -10 20 -5 0 -10 9 -10 20
0 32 16 23 39 -22z m-260 15 c34 -20 40 -33 15 -33 -22 0 -51 17 -58 35 -7 20
5 19 43 -2z m81 7 c0 -5 -4 -10 -9 -10 -6 0 -13 5 -16 10 -3 6 1 10 9 10 9 0
16 -4 16 -10z m-214 -44 c6 -17 -12 -56 -26 -56 -11 0 -14 53 -3 63 11 11 23
8 29 -7z m304 -18 c0 -7 -9 -24 -20 -38 -11 -14 -20 -29 -20 -34 0 -11 -53
-57 -58 -51 -2 2 7 19 20 37 14 18 31 48 38 66 12 31 40 45 40 20z m125 -48
c-3 -5 -15 -10 -26 -10 -11 0 -17 5 -14 10 3 6 15 10 26 10 11 0 17 -4 14 -10z
m-535 -96 c0 -8 -5 -12 -10 -9 -6 4 -8 11 -5 16 9 14 15 11 15 -7z m355 -74
c-5 -8 -11 -8 -17 -2 -6 6 -7 16 -3 22 5 8 11 8 17 2 6 -6 7 -16 3 -22z m15
-75 c0 -8 -4 -15 -8 -15 -13 0 -32 23 -32 37 0 11 5 11 20 3 11 -6 20 -17 20
-25z m-425 -104 c3 -5 1 -13 -5 -16 -15 -9 -43 3 -35 15 8 13 32 13 40 1z m-9
-78 c-10 -10 -19 5 -10 18 6 11 8 11 12 0 2 -7 1 -15 -2 -18z m194 -53 c0 -5
-7 -10 -15 -10 -8 0 -15 5 -15 10 0 6 7 10 15 10 8 0 15 -4 15 -10z m80 -35
c0 -21 -21 -63 -35 -69 -7 -2 -19 4 -28 14 -14 17 -14 21 8 44 26 28 55 34 55
11z m-100 -39 c0 -8 -4 -17 -9 -20 -10 -7 -23 19 -14 28 11 11 23 6 23 -8z
m-90 -75 c-11 -21 -40 -29 -40 -11 0 5 10 22 23 36 17 20 23 22 25 10 2 -8 -2
-24 -8 -35z m238 32 c-2 -10 -14 -20 -28 -22 -25 -3 -25 -3 -6 18 23 26 39 27
34 4z m-288 -97 c-7 -7 -14 -6 -22 2 -10 10 -10 15 2 22 17 11 34 -10 20 -24z
m-48 -38 c-15 -15 -26 -4 -18 18 5 13 9 15 18 6 9 -9 9 -15 0 -24z m183 -370
c-3 -29 -8 -62 -10 -73 -2 -11 -4 -23 -4 -27 -1 -5 -7 -8 -15 -8 -34 0 -23 99
16 148 18 21 20 14 13 -40z m105 -27 c0 -17 -4 -32 -9 -35 -11 -7 -24 41 -16
54 12 20 25 9 25 -19z m-254 -138 c-10 -10 -19 5 -10 18 6 11 8 11 12 0 2 -7
1 -15 -2 -18z m173 -4 c11 -26 11 -33 0 -39 -8 -6 -12 -25 -10 -58 2 -34 -2
-52 -13 -61 -11 -9 -16 -31 -16 -67 0 -56 -27 -134 -46 -134 -19 0 -24 12 -13
32 17 32 -3 40 -39 15 -42 -29 -51 -57 -23 -75 11 -8 21 -21 21 -28 0 -8 5
-14 10 -14 15 0 1 -81 -18 -102 -19 -22 -32 -23 -32 -2 0 9 -8 14 -17 13 -10
-1 -29 -1 -42 0 -21 1 -23 5 -17 31 6 35 8 34 -30 16 -16 -8 -40 -17 -53 -21
l-23 -7 18 32 c29 49 101 78 120 49 5 -8 10 -6 16 5 13 22 2 35 -24 28 -14 -3
-19 -2 -14 6 4 7 13 12 20 12 16 0 59 87 52 105 -3 9 1 15 9 15 8 0 15 7 15
15 0 8 -7 15 -15 15 -22 0 -18 23 8 47 12 11 27 29 34 39 12 18 12 18 18 -3 4
-11 16 -24 28 -27 26 -6 23 -11 30 47 7 47 1 57 -21 35 -9 -9 -15 -9 -24 0
-13 13 2 50 36 90 26 30 39 28 55 -9z m-119 -70 c0 -15 -33 -69 -42 -69 -11 0
-10 38 2 61 11 20 40 26 40 8z m170 -49 c0 -11 -4 -20 -9 -20 -14 0 -23 18
-16 30 10 17 25 11 25 -10z m40 -110 c0 -5 -2 -10 -4 -10 -3 0 -8 5 -11 10 -3
6 -1 10 4 10 6 0 11 -4 11 -10z m-460 -95 c0 -17 -31 -75 -40 -75 -6 0 -15
-11 -20 -25 -5 -14 -14 -25 -20 -25 -15 0 -12 16 5 30 8 7 15 19 15 27 0 16
40 72 53 72 4 1 7 -1 7 -4z m340 -145 c0 -5 -4 -10 -10 -10 -5 0 -10 5 -10 10
0 6 5 10 10 10 6 0 10 -4 10 -10z m-246 -84 c-8 -31 29 -46 55 -22 22 20 28
20 56 -3 24 -18 24 -18 6 -52 -18 -34 -100 -105 -156 -135 -16 -9 -46 -29 -65
-44 -19 -15 -43 -30 -53 -33 -15 -6 -18 -2 -15 19 2 19 16 33 57 55 30 17 67
44 83 61 31 33 30 52 0 25 -10 -10 -28 -17 -40 -17 -12 0 -22 -5 -22 -10 0 -6
-12 -16 -27 -23 -16 -6 -55 -40 -88 -74 -54 -56 -95 -79 -95 -54 0 5 25 33 55
62 30 29 55 57 55 62 0 5 21 28 48 52 26 23 53 54 61 68 7 14 24 31 37 38 13
6 26 20 30 31 8 27 25 22 18 -6z m267 -19 c-8 -8 -11 -7 -11 4 0 20 13 34 18
19 3 -7 -1 -17 -7 -23z m-557 -32 c-6 -16 -24 -21 -24 -7 0 11 11 22 21 22 5
0 6 -7 3 -15z m-14 -56 c0 -5 -7 -9 -15 -9 -15 0 -20 12 -9 23 8 8 24 -1 24
-14z m-80 -69 c-6 -12 -14 -20 -17 -17 -2 3 1 14 8 26 7 11 15 18 17 16 2 -2
-2 -13 -8 -25z m-36 -45 c-4 -8 -10 -15 -15 -15 -4 0 -17 -10 -29 -22 -11 -12
-23 -18 -27 -15 -8 9 46 67 64 67 7 0 10 -6 7 -15z m91 -45 c7 -12 -31 -70
-46 -70 -21 0 -20 32 1 56 26 26 35 29 45 14z m-212 -94 c-10 -14 -24 -26 -31
-26 -8 0 -2 14 15 36 30 40 46 30 16 -10z m327 37 c0 -12 -33 -43 -47 -43 -19
0 -16 9 10 31 23 19 37 24 37 12z m-75 -63 c-4 -6 -23 -19 -44 -30 -21 -10
-41 -26 -44 -35 -4 -8 -13 -15 -21 -15 -8 0 -17 -8 -21 -17 -3 -10 -22 -30
-42 -46 -43 -32 -64 -23 -44 19 10 23 14 24 28 13 14 -12 18 -11 27 6 6 10 31
41 55 67 36 39 50 48 78 48 21 0 32 -4 28 -10z m-264 -100 c20 -11 27 -40 9
-40 -5 0 -10 -10 -10 -22 0 -23 -90 -113 -125 -124 -11 -4 -50 -34 -87 -67
-51 -46 -68 -68 -68 -87 0 -25 -16 -50 -31 -50 -4 0 -5 9 -2 20 4 13 0 20 -9
20 -8 0 -23 -9 -33 -20 -21 -23 -41 -24 -110 -6 -31 8 -51 19 -53 30 -2 9 23
42 60 78 35 35 74 78 87 96 14 21 31 32 46 32 13 0 38 12 57 27 18 15 27 20
19 11 -28 -36 20 -68 49 -34 24 30 75 53 92 42 18 -11 50 8 47 28 -3 18 22 76
33 76 5 0 18 -5 29 -10z m-123 -32 c-2 -13 -11 -24 -21 -26 -22 -4 -35 27 -16
39 25 16 41 10 37 -13z m724 -20 c-7 -7 -12 -8 -12 -2 0 14 12 26 19 19 2 -3
-1 -11 -7 -17z m-357 -278 c-5 -16 -10 -19 -18 -11 -7 7 -6 15 3 26 17 20 24
13 15 -15z m-133 -72 c-7 -7 -12 -8 -12 -2 0 6 3 14 7 17 3 4 9 5 12 2 2 -3
-1 -11 -7 -17z m-297 -8 c-3 -5 -13 -10 -21 -10 -8 0 -12 5 -9 10 3 6 13 10
21 10 8 0 12 -4 9 -10z m201 -38 c-9 -9 -37 8 -31 18 5 8 11 7 21 -1 8 -6 12
-14 10 -17z m-161 8 c-3 -5 -10 -10 -16 -10 -5 0 -9 5 -9 10 0 6 7 10 16 10 8
0 12 -4 9 -10z m141 -31 c6 -10 -41 -58 -58 -59 -15 0 -8 24 14 47 24 26 34
28 44 12z m-86 -24 c0 -8 -7 -15 -15 -15 -8 0 -15 7 -15 15 0 8 7 15 15 15 8
0 15 -7 15 -15z m420 -210 c-12 -15 -30 -12 -30 6 0 5 10 9 21 9 18 0 19 -2 9
-15z m133 -2 c-7 -2 -19 -2 -25 0 -7 3 -2 5 12 5 14 0 19 -2 13 -5z m-80 -29
c13 -13 -7 -34 -32 -33 -14 0 -20 3 -13 6 6 2 12 11 12 19 0 14 21 19 33 8z
m-1163 -78 c0 -22 -82 -156 -91 -150 -18 11 -8 44 32 108 38 60 59 75 59 42z
m105 -87 c55 -42 71 -64 54 -75 -6 -3 -8 -12 -5 -20 7 -18 -20 -69 -29 -55 -9
15 -26 3 -24 -17 2 -31 -13 -62 -31 -62 -22 0 -130 96 -130 116 0 19 89 154
101 154 5 0 34 -18 64 -41z m138 -125 c-4 -10 -9 -12 -15 -6 -12 12 -1 35 12
27 5 -3 6 -13 3 -21z m1467 6 c0 -5 -4 -10 -10 -10 -5 0 -10 5 -10 10 0 6 5
10 10 10 6 0 10 -4 10 -10z m-59 -22 c1 -7 1 -18 0 -25 -1 -7 23 -31 54 -54
30 -23 55 -48 55 -55 0 -21 -11 -17 -50 16 -46 39 -54 38 -28 -5 11 -20 17
-39 14 -43 -4 -4 -40 -19 -79 -33 -60 -21 -74 -31 -86 -57 -8 -18 -22 -32 -32
-32 -10 0 -24 -3 -33 -6 -23 -9 -21 6 21 140 32 101 42 120 63 128 14 5 36 16
50 23 33 17 50 18 51 3z m89 -2 c0 -11 -19 -15 -25 -6 -3 5 1 10 9 10 9 0 16
-2 16 -4z m-1232 -41 c94 -19 122 -30 122 -49 0 -24 -16 -27 -81 -17 -44 8
-66 7 -76 0 -25 -21 -13 -39 31 -50 43 -11 65 -34 49 -50 -4 -4 -28 -3 -53 2
-38 9 -46 8 -57 -7 -7 -10 -13 -28 -13 -41 0 -30 -29 -42 -45 -19 -9 11 -10
28 -4 54 4 20 16 72 25 115 9 42 19 77 21 77 2 0 39 -7 81 -15z m-278 -5 c0
-5 -9 -10 -19 -10 -11 0 -23 5 -26 10 -4 6 5 10 19 10 14 0 26 -4 26 -10z
m-72 -32 c19 -19 14 -30 -8 -18 -11 6 -20 15 -20 20 0 14 14 12 28 -2z m1186
3 c8 -13 -4 -42 -15 -35 -12 7 -12 44 0 44 6 0 12 -4 15 -9z m-460 -20 c4 -5
2 -21 -4 -36 -6 -15 -13 -68 -17 -117 -6 -83 -7 -89 -27 -86 -20 3 -21 10 -23
113 -1 61 0 116 2 123 5 14 61 17 69 3z m945 -5 c10 -11 8 -17 -6 -25 -15 -8
-16 -13 -5 -30 6 -12 12 -36 12 -56 0 -19 11 -64 25 -101 14 -36 25 -77 25
-90 0 -13 5 -24 10 -24 6 0 10 -7 10 -16 0 -27 -45 -13 -48 16 -5 42 -43 155
-55 162 -7 4 -7 11 2 22 11 13 9 20 -8 45 -25 35 -26 44 -6 61 9 7 14 19 11
26 -9 25 15 32 33 10z m-582 -12 c2 -7 -17 -14 -47 -18 -80 -11 -82 -61 -3
-81 56 -14 57 -29 3 -35 -42 -5 -45 -7 -48 -37 -3 -29 -7 -33 -33 -33 -16 0
-29 1 -29 3 -1 1 -3 51 -7 110 l-6 108 83 -3 c50 -2 85 -7 87 -14z m-1102 -44
c3 -5 1 -10 -4 -10 -6 0 -11 5 -11 10 0 6 2 10 4 10 3 0 8 -4 11 -10z m1155
-56 c0 -8 -4 -12 -10 -9 -5 3 -10 10 -10 16 0 5 5 9 10 9 6 0 10 -7 10 -16z
m-1152 -16 c7 -7 9 -31 5 -70 -7 -67 5 -75 36 -25 27 45 54 68 68 59 7 -4 13
-37 15 -72 2 -36 7 -65 12 -65 5 0 21 20 36 45 16 28 35 46 48 48 32 5 28 -18
-18 -89 -22 -34 -40 -66 -40 -70 0 -5 -10 -13 -21 -20 -32 -17 -48 6 -55 79
-4 34 -10 62 -14 62 -5 0 -22 -22 -40 -50 -50 -78 -58 -71 -63 65 -5 112 1
133 31 103z m1558 -73 c8 -13 22 -45 30 -71 18 -60 29 -72 59 -66 14 2 25 0
25 -5 0 -35 -78 -45 -109 -14 -28 28 -65 149 -50 167 16 20 26 18 45 -11z
m-129 -8 c18 -13 7 -25 -19 -21 -34 6 -69 -53 -61 -103 3 -21 10 -44 16 -51
12 -16 64 -7 89 15 20 18 48 11 48 -11 0 -8 -12 -24 -27 -36 -21 -17 -38 -20
-82 -18 -51 3 -57 6 -79 38 -32 47 -27 125 9 151 13 10 31 24 39 32 17 16 49
18 67 4z m-1497 -27 c0 -5 -4 -10 -10 -10 -5 0 -10 5 -10 10 0 6 5 10 10 10 6
0 10 -4 10 -10z m457 -12 c23 -12 38 -42 48 -100 5 -32 2 -39 -26 -59 -18 -12
-52 -24 -79 -27 -45 -4 -48 -3 -70 32 -39 64 -9 155 55 168 22 5 39 1 72 -14z
m286 -19 c32 -8 37 -14 37 -38 0 -20 -6 -30 -20 -34 -12 -3 -20 0 -20 8 0 26
-90 34 -110 9 -23 -27 7 -44 83 -46 37 -1 67 -5 67 -9 0 -15 -30 -30 -50 -24
-31 10 -26 -25 8 -51 33 -27 25 -38 -19 -27 -23 6 -35 16 -39 33 -12 52 -70
53 -70 1 0 -35 -16 -49 -35 -30 -12 12 -12 30 0 114 8 55 15 101 15 103 0 7
120 0 153 -9z m425 -6 c36 -22 52 -43 52 -67 0 -19 -1 -18 -17 4 -9 14 -17 26
-17 26 -1 1 -25 5 -53 9 l-53 7 0 -54 c0 -30 6 -63 14 -73 13 -17 16 -18 42
-5 16 8 32 16 37 18 4 2 7 -12 7 -32 0 -42 -18 -54 -89 -63 l-48 -5 -6 92 c-4
51 -7 108 -7 127 l0 33 55 0 c35 0 66 -6 83 -17z m-285 -9 c3 -3 1 -14 -5 -23
-7 -12 -8 -37 -2 -76 8 -52 13 -60 43 -77 26 -15 36 -16 42 -7 9 16 39 4 39
-16 0 -12 -15 -15 -85 -15 l-85 0 0 110 c0 109 0 110 23 110 13 0 26 -3 30 -6z
m-1303 -102 c0 -7 -4 -10 -10 -7 -5 3 -10 16 -10 28 0 18 2 19 10 7 5 -8 10
-21 10 -28z m42 -65 c38 -59 78 -99 161 -160 40 -30 78 -61 86 -71 8 -9 33
-21 58 -27 47 -12 67 -29 34 -29 -11 0 -46 16 -78 35 -32 19 -63 35 -70 35 -6
0 -18 6 -25 13 -7 7 -32 25 -56 39 -38 22 -57 44 -126 143 -18 26 -30 65 -19
65 4 0 20 -19 35 -43z m901 -4 c-7 -2 -19 -2 -25 0 -7 3 -2 5 12 5 14 0 19 -2
13 -5z m-358 -345 c61 -13 165 -57 165 -70 0 -22 -139 15 -230 61 -62 30 -63
32 -25 26 22 -3 63 -11 90 -17z"/>
<path d="M2440 6040 c0 -5 5 -10 10 -10 6 0 10 5 10 10 0 6 -4 10 -10 10 -5 0
-10 -4 -10 -10z"/>
<path d="M2415 5970 c-3 -5 1 -10 10 -10 9 0 13 5 10 10 -3 6 -8 10 -10 10 -2
0 -7 -4 -10 -10z"/>
<path d="M2600 5893 c0 -12 5 -25 10 -28 13 -8 13 15 0 35 -8 12 -10 11 -10
-7z"/>
<path d="M2416 5816 c3 -8 12 -12 20 -9 17 6 9 23 -11 23 -8 0 -12 -6 -9 -14z"/>
<path d="M3720 5946 c0 -8 5 -18 10 -21 6 -3 10 1 10 9 0 8 -4 18 -10 21 -5 3
-10 -1 -10 -9z"/>
<path d="M3280 5290 c0 -5 5 -10 10 -10 6 0 10 5 10 10 0 6 -4 10 -10 10 -5 0
-10 -4 -10 -10z"/>
<path d="M3383 5194 c-9 -23 13 -40 32 -24 12 10 18 10 33 -1 16 -13 16 -13 2
6 -29 38 -56 46 -67 19z"/>
<path d="M3143 3233 c-15 -5 -18 -43 -4 -43 9 0 26 39 19 44 -1 2 -9 1 -15 -1z"/>
<path d="M3095 2971 c-7 -12 12 -24 25 -16 11 7 4 25 -10 25 -5 0 -11 -4 -15
-9z"/>
<path d="M3041 2946 c-9 -10 -6 -17 13 -30 14 -9 28 -16 31 -16 10 0 5 36 -7
48 -15 15 -23 15 -37 -2z"/>
<path d="M3020 2770 c-9 -16 -8 -18 5 -14 8 4 15 12 15 20 0 20 -7 17 -20 -6z"/>
<path d="M2036 2117 c-15 -19 -26 -42 -26 -53 0 -15 9 -10 40 23 22 23 40 47
40 53 0 21 -30 9 -54 -23z"/>
<path d="M2130 2114 c0 -8 5 -12 10 -9 6 3 10 10 10 16 0 5 -4 9 -10 9 -5 0
-10 -7 -10 -16z"/>
<path d="M2100 2080 c0 -5 7 -10 15 -10 8 0 15 5 15 10 0 6 -7 10 -15 10 -8 0
-15 -4 -15 -10z"/>
<path d="M2040 2026 c0 -9 5 -16 10 -16 6 0 10 4 10 9 0 6 -4 13 -10 16 -5 3
-10 -1 -10 -9z"/>
<path d="M3244 1242 c-14 -10 -36 -80 -29 -92 3 -5 12 -10 18 -10 23 0 87 21
87 29 0 15 -67 79 -76 73z"/>
<path d="M2106 918 c-28 -40 -20 -75 23 -98 20 -10 27 -9 50 7 37 28 39 65 5
92 -34 27 -59 27 -78 -1z"/>
<path d="M2255 9019 c-10 -15 75 -98 93 -91 12 4 11 9 -6 23 -12 9 -22 24 -22
32 0 16 -31 47 -48 47 -6 0 -14 -5 -17 -11z"/>
<path d="M2085 8990 c-3 -5 -4 -10 -1 -10 2 0 11 -3 20 -6 11 -4 16 -1 16 10
0 18 -25 22 -35 6z"/>
<path d="M2657 8994 c-8 -8 1 -24 14 -24 5 0 9 7 9 15 0 15 -12 20 -23 9z"/>
<path d="M1890 8575 c0 -8 5 -15 10 -15 6 0 10 7 10 15 0 8 -4 15 -10 15 -5 0
-10 -7 -10 -15z"/>
<path d="M1947 8574 c-8 -8 3 -34 14 -34 11 0 12 27 0 34 -4 3 -11 3 -14 0z"/>
<path d="M3800 8576 c0 -3 5 -17 10 -32 8 -19 14 -24 21 -17 8 8 7 17 0 32
-10 18 -31 30 -31 17z"/>
<path d="M3890 8480 c0 -19 3 -21 12 -12 9 9 9 15 0 24 -9 9 -12 7 -12 -12z"/>
<path d="M3900 8361 c0 -10 7 -35 15 -54 8 -20 15 -48 15 -63 0 -23 2 -25 15
-14 19 15 13 55 -16 113 -22 41 -29 46 -29 18z"/>
<path d="M3670 8304 c0 -3 16 -21 35 -39 19 -19 48 -61 64 -94 17 -33 39 -65
50 -70 10 -6 22 -26 25 -45 4 -23 17 -43 37 -56 40 -29 56 -21 25 13 -40 43
-41 66 -7 131 17 32 31 60 31 63 0 13 -49 -45 -65 -77 l-18 -35 -15 35 c-7 19
-34 68 -59 108 -39 62 -49 72 -74 72 -16 0 -29 -3 -29 -6z"/>
<path d="M3836 7954 c-16 -41 18 -159 45 -159 15 0 15 3 1 95 -11 75 -31 103
-46 64z"/>
<path d="M3756 7894 c-16 -11 -17 -14 -4 -14 9 0 19 -7 22 -16 10 -26 16 -11
8 18 -6 24 -9 25 -26 12z"/>
<path d="M3892 7688 c-7 -7 -12 -22 -12 -35 0 -12 -5 -34 -12 -48 -9 -21 -8
-32 6 -62 9 -19 15 -38 12 -40 -8 -8 33 -83 45 -83 7 0 8 7 4 18 -4 9 -11 35
-14 57 -4 22 -13 50 -20 63 -6 12 -9 27 -5 33 4 6 10 25 14 43 4 17 11 39 15
49 8 20 -14 24 -33 5z"/>
<path d="M3730 7560 c0 -5 5 -10 10 -10 6 0 10 5 10 10 0 6 -4 10 -10 10 -5 0
-10 -4 -10 -10z"/>
<path d="M3993 7455 c-9 -24 1 -27 15 -5 8 13 8 20 2 20 -6 0 -13 -7 -17 -15z"/>
<path d="M4463 7439 c-23 -28 -31 -79 -13 -79 6 0 13 8 17 18 3 9 14 25 25 35
10 10 18 24 18 31 0 26 -25 23 -47 -5z"/>
<path d="M3755 7390 c3 -5 11 -10 16 -10 6 0 7 5 4 10 -3 6 -11 10 -16 10 -6
0 -7 -4 -4 -10z"/>
<path d="M3867 7383 c-13 -12 -7 -70 8 -83 12 -10 14 -5 12 39 -2 49 -6 58
-20 44z"/>
<path d="M3970 7236 c0 -16 5 -26 15 -26 8 0 15 6 15 14 0 7 -7 19 -15 26 -13
11 -15 8 -15 -14z"/>
<path d="M1241 7134 c0 -11 3 -14 6 -6 3 7 2 16 -1 19 -3 4 -6 -2 -5 -13z"/>
<path d="M1908 7053 c6 -2 18 -2 25 0 6 3 1 5 -13 5 -14 0 -19 -2 -12 -5z"/>
<path d="M3872 7018 c-14 -14 -16 -28 -3 -28 9 0 24 30 18 36 -2 2 -9 -2 -15
-8z"/>
<path d="M4005 7011 c-16 -10 -38 -28 -49 -39 -18 -21 -18 -23 -1 -48 16 -25
16 -28 1 -39 -9 -7 -16 -17 -16 -24 0 -6 -7 -22 -15 -35 -18 -27 -10 -58 14
-54 10 2 15 11 13 27 -5 32 28 91 50 91 25 0 23 15 -4 32 l-23 15 33 37 c17
20 32 41 32 46 0 13 0 13 -35 -9z"/>
<path d="M2070 6930 c0 -5 7 -10 15 -10 8 0 15 5 15 10 0 6 -7 10 -15 10 -8 0
-15 -4 -15 -10z"/>
<path d="M1815 6820 c-3 -5 -1 -10 4 -10 6 0 11 5 11 10 0 6 -2 10 -4 10 -3 0
-8 -4 -11 -10z"/>
<path d="M1986 6815 c4 -8 10 -15 15 -15 5 0 9 7 9 15 0 8 -7 15 -15 15 -9 0
-12 -6 -9 -15z"/>
<path d="M1840 6770 c0 -5 5 -10 10 -10 6 0 10 5 10 10 0 6 -4 10 -10 10 -5 0
-10 -4 -10 -10z"/>
<path d="M3875 6750 c3 -5 8 -10 11 -10 2 0 4 5 4 10 0 6 -5 10 -11 10 -5 0
-7 -4 -4 -10z"/>
<path d="M1985 6650 c3 -5 10 -10 16 -10 5 0 9 5 9 10 0 6 -7 10 -16 10 -8 0
-12 -4 -9 -10z"/>
<path d="M1960 6600 c0 -5 5 -10 10 -10 6 0 10 5 10 10 0 6 -4 10 -10 10 -5 0
-10 -4 -10 -10z"/>
<path d="M1875 6590 c3 -5 8 -10 11 -10 2 0 4 5 4 10 0 6 -5 10 -11 10 -5 0
-7 -4 -4 -10z"/>
<path d="M920 6580 c0 -5 5 -10 11 -10 5 0 7 5 4 10 -3 6 -8 10 -11 10 -2 0
-4 -4 -4 -10z"/>
<path d="M1140 6176 c0 -15 64 -76 80 -76 19 0 10 34 -17 62 -28 30 -63 37
-63 14z"/>
<path d="M4202 6017 c-17 -21 -12 -50 6 -38 8 4 12 19 10 31 -3 21 -4 22 -16
7z"/>
<path d="M1285 5893 c-5 -20 -2 -31 11 -40 29 -21 44 -16 44 15 0 52 -43 71
-55 25z"/>
<path d="M4134 5865 c-7 -19 -14 -41 -14 -49 0 -8 -4 -18 -10 -21 -12 -8 -13
-35 -2 -35 13 0 45 77 46 110 1 38 -2 38 -20 -5z"/>
<path d="M1366 5788 c9 -18 18 -52 19 -75 1 -33 8 -47 28 -63 15 -12 27 -28
27 -35 0 -16 48 -75 60 -75 20 0 21 42 2 63 -11 12 -37 53 -57 92 -39 73 -75
124 -88 124 -4 1 0 -14 9 -31z"/>
<path d="M1274 5786 c-4 -11 3 -25 20 -41 28 -26 32 -40 16 -50 -15 -9 -12
-88 5 -112 13 -18 13 -22 0 -33 -35 -29 -10 -100 35 -100 30 0 40 -13 20 -25
-15 -9 -12 -76 5 -105 8 -14 14 -36 15 -51 0 -14 5 -30 11 -36 7 -7 5 -21 -8
-47 -12 -26 -14 -39 -6 -44 6 -4 14 -34 18 -67 8 -69 28 -107 50 -99 11 5 13
2 9 -10 -4 -10 0 -18 10 -22 11 -4 16 -19 16 -45 0 -33 4 -41 25 -49 30 -12
31 -24 4 -80 -19 -38 -20 -48 -9 -84 22 -71 41 -121 55 -136 7 -8 23 -38 35
-67 12 -29 33 -59 45 -67 15 -10 25 -27 27 -48 2 -17 9 -34 17 -36 11 -4 12 2
7 23 -6 25 -5 27 8 16 10 -8 16 -29 16 -51 0 -33 3 -37 19 -33 21 5 44 -26 39
-52 -3 -16 58 -108 105 -158 15 -17 27 -35 27 -41 0 -7 20 -40 45 -74 25 -34
45 -66 45 -72 0 -5 4 -10 9 -10 5 0 11 -13 15 -30 4 -21 11 -30 25 -30 10 0
24 -7 31 -15 7 -9 19 -14 25 -11 14 5 66 -46 84 -81 13 -26 31 -30 31 -8 0 28
-88 179 -114 197 -6 4 -16 -2 -24 -13 -21 -30 -42 -24 -43 14 -1 76 -7 108
-22 125 -10 10 -17 28 -17 41 0 32 -27 37 -49 10 -26 -32 -47 -15 -32 24 9 23
7 29 -14 43 -15 10 -25 26 -25 39 0 15 -8 26 -20 30 -28 9 -25 23 5 23 13 0
22 -4 19 -9 -3 -5 2 -9 10 -9 21 0 20 7 -9 71 -37 78 -41 84 -59 83 -17 -2
-23 22 -7 28 4 2 -11 44 -35 93 -23 50 -43 95 -43 100 -1 13 -60 75 -72 75
-14 0 -11 40 4 40 7 0 5 4 -4 10 -11 6 -17 24 -17 50 -1 47 14 52 42 13 16
-22 17 -29 7 -46 -13 -21 -12 -23 31 -47 9 -6 20 -27 24 -47 4 -20 20 -55 35
-79 16 -23 29 -48 29 -56 0 -21 35 -90 59 -115 12 -12 21 -33 21 -47 0 -13 6
-31 13 -38 7 -7 16 -21 20 -30 3 -10 11 -18 17 -18 13 0 13 3 -1 33 -7 15 -7
35 -2 58 9 35 28 43 28 11 0 -34 35 -92 56 -92 18 0 19 2 4 30 -18 36 -19 40
-1 40 39 0 98 -82 112 -154 3 -17 21 -48 41 -70 31 -34 37 -36 50 -23 13 13
13 18 -8 46 -20 27 -21 35 -11 51 7 11 12 24 12 29 0 6 -28 38 -63 73 -35 35
-82 95 -105 134 -23 39 -56 83 -72 99 -17 16 -30 36 -30 45 0 9 -9 25 -21 36
-20 18 -21 18 -35 -1 -10 -14 -17 -16 -25 -8 -13 13 -4 33 16 33 20 0 8 28
-15 35 -17 5 -90 106 -90 124 0 5 -16 50 -36 99 -31 79 -39 91 -64 95 -23 5
-31 15 -45 57 -17 51 -34 68 -55 55 -8 -5 -6 -13 6 -27 10 -11 20 -39 21 -66
2 -26 6 -64 10 -84 4 -32 2 -38 -13 -38 -27 0 -76 66 -85 114 -12 62 -11 76 6
70 12 -5 15 2 15 33 0 21 -5 44 -11 50 -6 6 -8 16 -5 22 12 19 34 12 40 -11 6
-25 41 -52 56 -43 19 12 -51 100 -73 92 -7 -2 -19 2 -28 10 -14 12 -18 10 -33
-12 -19 -29 -41 -33 -50 -9 -6 16 2 26 52 60 26 19 27 32 8 71 -8 15 -19 45
-26 66 -11 36 -10 39 14 58 14 11 26 27 26 35 0 18 -9 18 -31 -2 -21 -19 -39
-11 -32 15 6 23 -13 37 -21 16 -9 -25 -36 -5 -36 26 0 16 -5 29 -10 29 -7 0
-8 13 -4 35 5 28 3 36 -12 42 -27 9 -35 24 -29 53 6 33 -60 113 -71 86z m76
-286 c0 -5 -5 -10 -11 -10 -5 0 -7 5 -4 10 3 6 8 10 11 10 2 0 4 -4 4 -10z
m157 -392 c-3 -8 -6 -5 -6 6 -1 11 2 17 5 13 3 -3 4 -12 1 -19z m123 -284 c0
-8 -5 -12 -10 -9 -6 4 -8 11 -5 16 9 14 15 11 15 -7z m-10 -264 c0 -5 -4 -10
-10 -10 -5 0 -10 5 -10 10 0 6 5 10 10 10 6 0 10 -4 10 -10z m314 -143 c5 -21
3 -28 -5 -25 -20 7 -33 34 -25 53 8 22 21 10 30 -28z"/>
<path d="M1590 5770 c0 -5 7 -10 15 -10 8 0 15 5 15 10 0 6 -7 10 -15 10 -8 0
-15 -4 -15 -10z"/>
<path d="M1540 5746 c0 -9 7 -16 16 -16 17 0 14 22 -4 28 -7 2 -12 -3 -12 -12z"/>
<path d="M1251 5634 c0 -11 3 -14 6 -6 3 7 2 16 -1 19 -3 4 -6 -2 -5 -13z"/>
<path d="M4070 5630 c0 -11 5 -20 10 -20 6 0 10 9 10 20 0 11 -4 20 -10 20 -5
0 -10 -9 -10 -20z"/>
<path d="M1262 5560 c0 -14 2 -19 5 -12 2 6 2 18 0 25 -3 6 -5 1 -5 -13z"/>
<path d="M4062 5488 c-1 -42 2 -58 8 -48 12 19 13 110 1 110 -4 0 -9 -28 -9
-62z"/>
<path d="M2858 5520 c-7 -24 -3 -38 8 -28 3 4 4 17 2 30 l-3 23 -7 -25z"/>
<path d="M1572 5505 c-6 -14 -17 -25 -23 -25 -8 0 -8 -5 1 -15 10 -12 10 -19
2 -27 -16 -16 -15 -43 3 -58 9 -8 13 -21 9 -36 -4 -15 1 -33 15 -53 12 -16 21
-35 21 -43 0 -20 49 -92 72 -107 28 -18 42 -4 24 25 -9 13 -16 32 -16 43 0 25
30 36 48 17 13 -12 13 -18 2 -30 -9 -12 -10 -34 -5 -83 5 -38 7 -83 6 -100 -2
-24 2 -33 13 -33 9 0 16 -8 16 -19 0 -11 22 -46 50 -78 27 -32 50 -61 50 -65
0 -13 -18 -9 -23 5 -2 6 -7 9 -11 6 -14 -13 33 -99 59 -109 14 -5 28 -17 31
-25 4 -8 12 -15 20 -15 8 0 14 -9 14 -19 0 -11 22 -42 49 -70 28 -29 52 -60
56 -70 3 -10 18 -24 33 -31 15 -8 34 -20 44 -28 11 -9 18 -10 23 -3 10 17 21
13 39 -14 17 -25 16 -25 -3 -13 -11 7 -23 9 -27 5 -12 -11 46 -65 77 -72 15
-4 40 -16 54 -27 31 -24 42 -17 29 20 -7 19 -17 27 -35 28 -13 0 -30 3 -37 8
-14 9 -16 46 -2 46 16 0 12 37 -5 44 -8 3 -15 10 -15 15 0 6 7 8 15 5 13 -5
13 -3 0 22 -8 16 -15 36 -15 44 0 9 -4 20 -9 25 -19 20 -51 86 -51 105 0 12
-7 20 -18 20 -12 0 -29 24 -54 78 -21 42 -43 86 -50 97 -7 11 -22 35 -33 52
-20 33 -45 44 -45 21 0 -9 -4 -8 -10 2 -5 8 -7 29 -4 45 4 24 0 36 -24 58 -16
16 -40 55 -53 88 -22 56 -26 60 -52 56 -24 -3 -28 -1 -23 15 3 10 9 27 12 38
6 21 -10 28 -21 10 -9 -15 -35 -12 -35 3 0 8 -9 22 -21 33 -12 10 -28 32 -36
49 -9 16 -24 39 -34 51 -11 11 -30 40 -42 64 -27 53 -40 59 -55 25z m38 -35
c0 -5 -4 -10 -9 -10 -6 0 -13 5 -16 10 -3 6 1 10 9 10 9 0 16 -4 16 -10z m35
-98 c-9 -9 -35 8 -35 24 0 16 2 16 20 -1 11 -10 18 -20 15 -23z m141 -229 c-7
-7 -26 7 -26 19 0 6 6 6 15 -2 9 -7 13 -15 11 -17z m131 -115 c-3 -8 -6 -5 -6
6 -1 11 2 17 5 13 3 -3 4 -12 1 -19z m103 -164 c0 -8 -5 -12 -10 -9 -6 4 -8
11 -5 16 9 14 15 11 15 -7z m-52 -86 c7 -7 12 -16 12 -20 0 -15 -15 -8 -28 12
-13 22 -3 27 16 8z m62 -108 c0 -5 -4 -10 -10 -10 -5 0 -10 5 -10 10 0 6 5 10
10 10 6 0 10 -4 10 -10z m70 -50 c0 -5 -4 -10 -10 -10 -5 0 -10 5 -10 10 0 6
5 10 10 10 6 0 10 -4 10 -10z m110 -98 c0 -17 -37 2 -62 32 -29 34 -21 38 22
8 21 -15 39 -33 40 -40z"/>
<path d="M1271 5484 c0 -11 3 -14 6 -6 3 7 2 16 -1 19 -3 4 -6 -2 -5 -13z"/>
<path d="M1735 5480 c-3 -5 3 -10 15 -10 12 0 18 5 15 10 -3 6 -10 10 -15 10
-5 0 -12 -4 -15 -10z"/>
<path d="M1770 5454 c0 -3 12 -23 28 -44 23 -32 31 -38 54 -33 23 4 28 1 33
-20 4 -14 17 -32 28 -40 21 -13 22 -12 24 12 2 27 -40 81 -62 81 -7 0 -25 11
-41 25 -26 23 -64 34 -64 19z"/>
<path d="M1292 5410 c0 -8 4 -26 8 -40 6 -20 8 -21 8 -5 0 11 -3 29 -8 40 -5
12 -8 14 -8 5z"/>
<path d="M1760 5340 c0 -5 5 -10 11 -10 5 0 7 5 4 10 -3 6 -8 10 -11 10 -2 0
-4 -4 -4 -10z"/>
<path d="M1321 5284 c0 -11 3 -14 6 -6 3 7 2 16 -1 19 -3 4 -6 -2 -5 -13z"/>
<path d="M1331 5244 c0 -11 3 -14 6 -6 3 7 2 16 -1 19 -3 4 -6 -2 -5 -13z"/>
<path d="M3917 5243 c-13 -12 -7 -33 8 -33 8 0 15 9 15 20 0 20 -11 26 -23 13z"/>
<path d="M1341 5204 c0 -11 3 -14 6 -6 3 7 2 16 -1 19 -3 4 -6 -2 -5 -13z"/>
<path d="M3640 5177 c0 -14 31 -69 36 -64 3 3 -4 20 -15 38 -12 19 -21 30 -21
26z"/>
<path d="M2072 5111 c4 -13 18 -16 19 -4 0 4 -5 9 -11 12 -7 2 -11 -2 -8 -8z"/>
<path d="M1650 5081 c0 -12 29 -35 36 -28 11 10 -5 37 -21 37 -8 0 -15 -4 -15
-9z"/>
<path d="M3621 5061 c-15 -28 -5 -63 17 -59 22 4 27 38 9 62 -14 19 -15 19
-26 -3z"/>
<path d="M2155 5040 c-9 -14 1 -27 25 -33 21 -5 24 1 14 27 -7 18 -30 21 -39
6z"/>
<path d="M3030 5024 c0 -8 5 -12 10 -9 6 3 10 10 10 16 0 5 -4 9 -10 9 -5 0
-10 -7 -10 -16z"/>
<path d="M1990 5020 c0 -5 5 -10 10 -10 6 0 10 5 10 10 0 6 -4 10 -10 10 -5 0
-10 -4 -10 -10z"/>
<path d="M1560 4995 c0 -28 12 -32 29 -11 10 12 8 17 -8 26 -19 9 -21 8 -21
-15z"/>
<path d="M2372 5009 c2 -7 10 -15 17 -17 8 -3 12 1 9 9 -2 7 -10 15 -17 17 -8
3 -12 -1 -9 -9z"/>
<path d="M2410 4971 c0 -5 6 -16 13 -23 8 -7 16 -20 20 -28 4 -10 6 -8 6 7 1
12 -6 29 -15 37 -18 18 -24 20 -24 7z"/>
<path d="M1400 4958 c0 -7 5 -20 10 -28 8 -12 10 -11 10 7 0 12 -4 25 -10 28
-5 3 -10 0 -10 -7z"/>
<path d="M3710 4881 c0 -5 7 -14 15 -21 12 -10 15 -10 15 3 0 8 -7 17 -15 21
-8 3 -15 2 -15 -3z"/>
<path d="M2855 4840 c-10 -16 16 -43 28 -31 11 11 2 41 -12 41 -5 0 -13 -5
-16 -10z"/>
<path d="M2556 4803 c-11 -11 -6 -23 9 -23 8 0 15 4 15 9 0 13 -16 22 -24 14z"/>
<path d="M2860 4765 c0 -8 5 -15 10 -15 6 0 10 7 10 15 0 8 -4 15 -10 15 -5 0
-10 -7 -10 -15z"/>
<path d="M2780 4760 c0 -5 5 -10 10 -10 6 0 10 5 10 10 0 6 -4 10 -10 10 -5 0
-10 -4 -10 -10z"/>
<path d="M2855 4719 c-35 -47 -43 -99 -16 -99 13 0 33 64 29 91 -2 18 -5 20
-13 8z"/>
<path d="M3732 4651 c-12 -17 -18 -32 -13 -35 11 -7 26 12 34 42 7 28 5 28
-21 -7z"/>
<path d="M2590 4656 c0 -16 28 -42 36 -33 8 7 -14 47 -26 47 -6 0 -10 -6 -10
-14z"/>
<path d="M2890 4605 c0 -8 5 -15 10 -15 6 0 10 7 10 15 0 8 -4 15 -10 15 -5 0
-10 -7 -10 -15z"/>
<path d="M2641 4564 c0 -11 3 -14 6 -6 3 7 2 16 -1 19 -3 4 -6 -2 -5 -13z"/>
<path d="M3030 4510 c0 -5 5 -10 10 -10 6 0 10 5 10 10 0 6 -4 10 -10 10 -5 0
-10 -4 -10 -10z"/>
<path d="M2850 4450 c0 -19 3 -21 12 -12 9 9 9 15 0 24 -9 9 -12 7 -12 -12z"/>
<path d="M2220 4297 c0 -8 9 -25 19 -38 16 -20 23 -22 38 -13 10 6 18 22 18
35 0 21 -5 24 -37 27 -28 2 -38 -1 -38 -11z"/>
<path d="M1670 4280 c0 -5 5 -10 11 -10 5 0 7 5 4 10 -3 6 -8 10 -11 10 -2 0
-4 -4 -4 -10z"/>
<path d="M1730 4250 c0 -5 5 -10 10 -10 6 0 10 5 10 10 0 6 -4 10 -10 10 -5 0
-10 -4 -10 -10z"/>
<path d="M1960 4235 c0 -8 7 -15 16 -15 14 0 14 3 4 15 -7 8 -14 15 -16 15 -2
0 -4 -7 -4 -15z"/>
<path d="M2018 4188 c-4 -12 11 -63 25 -85 4 -7 5 -24 1 -38 -5 -19 -2 -25 10
-25 23 0 31 45 16 93 -17 60 -42 85 -52 55z"/>
<path d="M2272 4183 c-12 -23 3 -63 23 -63 19 0 19 14 0 30 -11 9 -13 16 -5
24 5 5 10 14 10 18 0 15 -19 8 -28 -9z"/>
<path d="M2900 4169 c0 -11 5 -17 10 -14 6 3 10 13 10 21 0 8 -4 14 -10 14 -5
0 -10 -9 -10 -21z"/>
<path d="M2347 4098 c-4 -13 0 -29 8 -38 8 -9 15 -22 15 -28 0 -12 32 -17 43
-6 11 11 -6 35 -30 45 -18 7 -23 14 -18 29 3 11 2 20 -3 20 -5 0 -12 -10 -15
-22z"/>
<path d="M2450 4089 c0 -24 23 -21 28 4 2 10 -3 17 -12 17 -10 0 -16 -9 -16
-21z"/>
<path d="M2125 4080 c4 -6 11 -8 16 -5 14 9 11 15 -7 15 -8 0 -12 -5 -9 -10z"/>
<path d="M2224 4043 c3 -8 6 -17 6 -19 0 -2 7 -4 15 -4 23 0 18 27 -6 33 -15
4 -19 2 -15 -10z"/>
<path d="M2310 4040 c0 -11 5 -20 10 -20 6 0 10 9 10 20 0 11 -4 20 -10 20 -5
0 -10 -9 -10 -20z"/>
<path d="M2814 4006 c-10 -25 0 -38 13 -17 8 13 9 22 3 26 -6 4 -13 -1 -16 -9z"/>
<path d="M1824 3998 c-4 -6 3 -20 16 -30 26 -21 35 -18 26 10 -8 24 -33 36
-42 20z"/>
<path d="M2100 3991 c0 -11 3 -21 8 -23 10 -4 72 -107 72 -119 0 -5 25 -36 55
-69 32 -35 52 -65 49 -74 -3 -8 -1 -17 5 -21 7 -4 11 4 11 21 0 17 -14 42 -40
70 -32 35 -40 51 -38 76 1 18 -3 33 -10 36 -6 2 -12 10 -12 18 0 8 -4 14 -10
14 -5 0 -10 5 -10 11 0 9 -67 79 -76 79 -2 0 -4 -9 -4 -19z"/>
<path d="M2300 3985 c0 -8 4 -15 10 -15 5 0 7 7 4 15 -4 8 -8 15 -10 15 -2 0
-4 -7 -4 -15z"/>
<path d="M1880 3943 c1 -17 29 -45 39 -38 6 3 9 11 6 16 -9 13 -45 31 -45 22z"/>
<path d="M2315 3880 c3 -5 8 -10 11 -10 2 0 4 5 4 10 0 6 -5 10 -11 10 -5 0
-7 -4 -4 -10z"/>
<path d="M3550 3856 c0 -8 5 -18 10 -21 6 -3 10 3 10 14 0 12 -4 21 -10 21 -5
0 -10 -6 -10 -14z"/>
<path d="M3510 3801 c0 -41 -3 -50 -21 -54 -17 -5 -20 -11 -15 -29 3 -13 6
-34 6 -48 0 -35 13 -52 34 -44 15 6 15 7 0 18 -15 11 -15 17 -3 50 8 21 18 35
25 32 22 -8 28 51 9 89 -22 49 -35 44 -35 -14z"/>
<path d="M2210 3660 c0 -5 5 -10 11 -10 5 0 7 5 4 10 -3 6 -8 10 -11 10 -2 0
-4 -4 -4 -10z"/>
<path d="M2400 3635 c0 -29 4 -35 23 -36 12 -1 29 -2 37 -3 8 -1 20 -4 27 -9
6 -4 14 -3 17 2 9 14 -60 81 -83 81 -17 0 -21 -6 -21 -35z"/>
<path d="M2230 3569 c0 -5 5 -7 10 -4 6 3 10 8 10 11 0 2 -4 4 -10 4 -5 0 -10
-5 -10 -11z"/>
<path d="M3470 3538 c0 -18 18 -34 28 -24 3 4 -2 14 -11 23 -16 16 -17 16 -17
1z"/>
<path d="M2157 3494 c-14 -14 -7 -35 11 -32 9 2 17 10 17 17 0 16 -18 25 -28
15z"/>
<path d="M3423 3493 c-17 -6 -17 -33 0 -33 8 0 22 -9 32 -20 10 -11 22 -17 26
-14 15 9 10 40 -9 57 -19 17 -28 19 -49 10z"/>
<path d="M2280 3321 c0 -16 -7 -34 -15 -41 -8 -7 -15 -19 -15 -26 0 -12 5 -12
32 -1 45 18 54 38 33 70 -22 35 -35 34 -35 -2z"/>
<path d="M2372 3233 c-8 -18 -9 -30 -2 -37 7 -7 10 -5 10 6 0 8 7 21 15 28 18
15 19 30 3 30 -7 0 -19 -12 -26 -27z"/>
<path d="M1977 3213 c-4 -10 -12 -26 -19 -35 -10 -14 -10 -20 0 -30 10 -10 14
-10 21 1 5 8 7 21 4 29 -3 8 0 18 8 23 10 6 11 11 3 19 -8 8 -13 6 -17 -7z"/>
<path d="M2302 3140 c-25 -21 -30 -53 -7 -44 8 4 15 13 15 21 0 10 7 14 20 10
12 -3 20 0 20 8 0 21 -24 24 -48 5z"/>
<path d="M3446 3134 c-4 -9 -4 -19 -1 -22 2 -3 7 3 11 12 4 9 4 19 1 22 -2 3
-7 -3 -11 -12z"/>
<path d="M1986 3095 c-9 -24 -7 -55 3 -55 12 0 22 53 12 63 -5 5 -11 1 -15 -8z"/>
<path d="M2337 3062 c-10 -10 -17 -24 -17 -30 0 -22 19 -12 35 18 17 33 7 40
-18 12z"/>
<path d="M2240 3056 c0 -9 7 -16 16 -16 9 0 14 5 12 12 -6 18 -28 21 -28 4z"/>
<path d="M2007 2945 c-8 -19 1 -65 13 -65 15 0 17 25 5 54 -10 23 -13 25 -18
11z"/>
<path d="M2154 2858 c-27 -43 -50 -99 -44 -103 10 -6 56 48 65 76 8 25 -9 47
-21 27z"/>
<path d="M3391 2765 c0 -11 4 -27 9 -35 9 -13 10 -13 9 0 0 8 -4 24 -9 35 l-9
20 0 -20z"/>
<path d="M2011 2724 c0 -11 3 -14 6 -6 3 7 2 16 -1 19 -3 4 -6 -2 -5 -13z"/>
<path d="M1961 2714 c0 -11 3 -14 6 -6 3 7 2 16 -1 19 -3 4 -6 -2 -5 -13z"/>
<path d="M2140 2715 c0 -8 5 -15 10 -15 6 0 10 7 10 15 0 8 -4 15 -10 15 -5 0
-10 -7 -10 -15z"/>
<path d="M2055 2699 c-10 -30 -2 -32 12 -3 6 13 7 24 3 24 -5 0 -12 -9 -15
-21z"/>
<path d="M3290 2669 c-13 -24 -4 -41 10 -19 10 16 13 40 5 40 -2 0 -9 -9 -15
-21z"/>
<path d="M2000 2594 c0 -45 22 -41 25 4 2 22 -2 32 -11 32 -9 0 -14 -12 -14
-36z"/>
<path d="M3217 2593 c-11 -10 -8 -43 4 -43 6 0 19 5 30 11 16 8 18 13 8 25
-12 15 -31 18 -42 7z"/>
<path d="M3328 2572 c-32 -4 -36 -15 -10 -34 22 -15 28 -108 9 -120 -18 -11
-4 -16 21 -7 18 7 22 16 21 51 0 24 -3 59 -7 78 -6 31 -10 35 -34 32z"/>
<path d="M1907 2503 c-4 -3 -7 -26 -7 -49 0 -24 -4 -46 -10 -49 -5 -3 -10 -11
-10 -18 0 -6 11 4 25 23 14 19 25 40 25 47 0 7 6 12 12 11 7 -2 14 7 16 20 3
18 -1 22 -21 22 -13 0 -27 -3 -30 -7z"/>
<path d="M3223 2303 c-26 -18 -30 -33 -8 -33 8 0 15 7 15 16 0 10 6 14 15 10
8 -3 15 -1 15 4 0 17 -15 18 -37 3z"/>
<path d="M3580 2176 c0 -2 8 -10 18 -17 15 -13 16 -12 3 4 -13 16 -21 21 -21
13z"/>
<path d="M1799 2123 c-13 -16 -12 -17 4 -4 9 7 17 15 17 17 0 8 -8 3 -21 -13z"/>
<path d="M3424 1996 c-3 -14 -1 -39 5 -54 6 -15 10 -38 9 -51 -4 -35 19 -37
27 -3 7 32 -8 109 -24 125 -7 7 -12 1 -17 -17z"/>
<path d="M3701 1950 c0 -8 4 -22 9 -30 12 -18 12 -2 0 25 -6 13 -9 15 -9 5z"/>
<path d="M3667 1913 c-12 -11 -8 -23 8 -23 8 0 15 7 15 15 0 16 -12 20 -23 8z"/>
<path d="M1676 1884 c-4 -9 -4 -19 -1 -22 2 -3 7 3 11 12 4 9 4 19 1 22 -2 3
-7 -3 -11 -12z"/>
<path d="M3600 1840 c0 -20 26 -34 42 -23 7 3 8 1 4 -6 -4 -6 -23 -10 -41 -9
-64 4 -55 -15 26 -54 31 -16 65 -28 76 -28 25 0 39 -16 46 -50 4 -22 4 -22 6
5 1 26 -7 37 -49 69 -39 30 -49 43 -45 60 6 27 -13 51 -42 53 -16 1 -23 -4
-23 -17z"/>
<path d="M1830 1826 c0 -22 42 -48 55 -35 7 7 3 16 -14 30 -28 23 -41 24 -41
5z"/>
<path d="M3405 1831 c-3 -5 -1 -12 5 -16 5 -3 10 1 10 9 0 18 -6 21 -15 7z"/>
<path d="M3251 1788 c1 -13 -2 -31 -6 -40 -10 -24 4 -22 39 6 34 28 30 56 -9
56 -19 0 -25 -5 -24 -22z"/>
<path d="M3410 1785 c0 -8 5 -15 10 -15 6 0 10 7 10 15 0 8 -4 15 -10 15 -5 0
-10 -7 -10 -15z"/>
<path d="M3730 1611 c0 -5 -3 -17 -6 -25 -5 -12 -2 -15 10 -10 17 7 22 44 6
44 -5 0 -10 -4 -10 -9z"/>
<path d="M3760 1464 c0 -10 54 -104 60 -104 3 0 13 12 23 25 21 30 8 65 -24
65 -11 0 -29 5 -40 10 -10 6 -19 8 -19 4z"/>
<path d="M3464 1313 c19 -21 38 -34 42 -30 10 9 -45 67 -64 67 -7 0 2 -16 22
-37z"/>
<path d="M3790 1325 c-8 -9 -8 -15 -2 -15 12 0 26 19 19 26 -2 2 -10 -2 -17
-11z"/>
<path d="M3570 1295 c0 -8 4 -15 8 -15 12 0 42 -56 34 -64 -4 -4 1 -12 11 -17
9 -6 17 -17 17 -26 0 -11 6 -14 26 -9 15 4 32 2 40 -5 19 -16 18 0 -6 48 -12
26 -28 43 -44 47 -13 3 -34 17 -47 31 -28 28 -39 31 -39 10z m115 -75 c3 -5 4
-14 0 -20 -8 -13 -35 -1 -35 16 0 16 26 19 35 4z"/>
<path d="M3539 1228 c-1 -2 -2 -18 -4 -36 -3 -31 -1 -32 14 -18 10 9 23 16 30
16 7 0 9 4 6 10 -6 10 -44 33 -46 28z"/>
<path d="M1624 1155 c-4 -8 -15 -15 -25 -15 -10 0 -19 -7 -19 -15 0 -20 14
-19 35 1 15 15 17 15 34 0 18 -17 51 -22 51 -8 0 8 -55 52 -65 52 -3 0 -8 -7
-11 -15z"/>
<path d="M3750 1122 c0 -4 7 -18 16 -30 17 -25 54 -30 54 -6 0 11 -6 13 -19 9
-14 -4 -21 0 -26 15 -6 19 -25 29 -25 12z"/>
<path d="M1596 1068 c-19 -40 -19 -41 -1 -55 22 -15 25 -16 44 -4 10 7 11 13
2 30 -13 24 -7 41 14 41 9 0 12 6 9 15 -12 31 -48 16 -68 -27z"/>
<path d="M3633 1089 c-15 -15 -4 -49 17 -49 23 0 44 26 36 45 -6 17 -37 20
-53 4z"/>
<path d="M4116 727 c-17 -28 -52 -76 -79 -104 -28 -29 -45 -53 -39 -53 20 0
109 98 132 144 31 66 21 76 -14 13z"/>
</g>
</svg>
